<svg width="42" height="42" viewBox="0 0 42 42" fill="none" xmlns="http://www.w3.org/2000/svg">
<path d="M24.9375 5.25V14.4375H34.125" stroke="white" stroke-width="2" stroke-linecap="round" stroke-linejoin="round"/>
<path d="M24.2812 21L28.2188 24.9375L24.2812 28.875" stroke="white" stroke-width="2" stroke-linecap="round" stroke-linejoin="round"/>
<path d="M17.7188 21L13.7812 24.9375L17.7188 28.875" stroke="white" stroke-width="2" stroke-linecap="round" stroke-linejoin="round"/>
<path d="M32.8125 36.75C33.1606 36.75 33.4944 36.6117 33.7406 36.3656C33.9867 36.1194 34.125 35.7856 34.125 35.4375V14.4375L24.9375 5.25H9.1875C8.8394 5.25 8.50556 5.38828 8.25942 5.63442C8.01328 5.88056 7.875 6.2144 7.875 6.5625V35.4375C7.875 35.7856 8.01328 36.1194 8.25942 36.3656C8.50556 36.6117 8.8394 36.75 9.1875 36.75H32.8125Z" stroke="white" stroke-width="2" stroke-linecap="round" stroke-linejoin="round"/>
</svg>
