<svg width="43" height="43" viewBox="0 0 43 43" fill="none" xmlns="http://www.w3.org/2000/svg">
<path d="M25.5312 5.375V14.7812H34.9375" stroke="#6B77E5" stroke-width="2" stroke-linecap="round" stroke-linejoin="round"/>
<path d="M24.8594 21.5L28.8906 25.5312L24.8594 29.5625" stroke="#6B77E5" stroke-width="2" stroke-linecap="round" stroke-linejoin="round"/>
<path d="M18.1406 21.5L14.1094 25.5312L18.1406 29.5625" stroke="#6B77E5" stroke-width="2" stroke-linecap="round" stroke-linejoin="round"/>
<path d="M33.5938 37.625C33.9501 37.625 34.2919 37.4834 34.5439 37.2314C34.7959 36.9794 34.9375 36.6376 34.9375 36.2812V14.7812L25.5312 5.375H9.40625C9.04987 5.375 8.70808 5.51657 8.45608 5.76858C8.20407 6.02058 8.0625 6.36237 8.0625 6.71875V36.2812C8.0625 36.6376 8.20407 36.9794 8.45608 37.2314C8.70808 37.4834 9.04987 37.625 9.40625 37.625H33.5938Z" stroke="#6B77E5" stroke-width="2" stroke-linecap="round" stroke-linejoin="round"/>
</svg>
