<svg width="43" height="43" viewBox="0 0 43 43" fill="none" xmlns="http://www.w3.org/2000/svg">
<path d="M36.2812 12.0938H6.71875C5.97662 12.0938 5.375 12.6954 5.375 13.4375V34.9375C5.375 35.6796 5.97662 36.2812 6.71875 36.2812H36.2812C37.0234 36.2812 37.625 35.6796 37.625 34.9375V13.4375C37.625 12.6954 37.0234 12.0938 36.2812 12.0938Z" stroke="#6B77E5" stroke-width="2" stroke-linecap="round" stroke-linejoin="round"/>
<path d="M28.2188 36.2812V9.40625C28.2188 8.69348 27.9356 8.0099 27.4316 7.5059C26.9276 7.0019 26.244 6.71875 25.5312 6.71875H17.4688C16.756 6.71875 16.0724 7.0019 15.5684 7.5059C15.0644 8.0099 14.7812 8.69348 14.7812 9.40625V36.2812" stroke="#6B77E5" stroke-width="2" stroke-linecap="round" stroke-linejoin="round"/>
</svg>
