<svg width="44" height="44" viewBox="0 0 44 44" fill="none" xmlns="http://www.w3.org/2000/svg">
<path d="M41.1353 20.8155L36.9141 22.9175L31.4453 12.4585L35.7178 10.3223C36.0353 10.1605 36.4039 10.1307 36.7433 10.2396C37.0826 10.3484 37.3652 10.587 37.5293 10.9034L41.7334 18.9527C41.8186 19.1138 41.8708 19.2904 41.8868 19.4719C41.9029 19.6535 41.8824 19.8365 41.8267 20.0101C41.7709 20.1836 41.6811 20.3443 41.5623 20.4826C41.4436 20.6209 41.2984 20.7341 41.1353 20.8155V20.8155Z" stroke="white" stroke-width="2" stroke-linecap="round" stroke-linejoin="round"/>
<path d="M6.83553 22.7464L2.61433 20.6273C2.4518 20.5476 2.30695 20.4361 2.18838 20.2994C2.06981 20.1626 1.97996 20.0034 1.92416 19.8312C1.86836 19.659 1.84775 19.4774 1.86356 19.297C1.87937 19.1167 1.93127 18.9414 2.01619 18.7816L6.22029 10.7323C6.38475 10.4162 6.66612 10.1768 7.00449 10.065C7.34285 9.95331 7.71146 9.9781 8.03181 10.1341L12.3043 12.2704L6.83553 22.7464Z" stroke="white" stroke-width="2" stroke-linecap="round" stroke-linejoin="round"/>
<path d="M36.9141 22.9175L34.1797 26.1304L27.8906 32.4194C27.7192 32.5797 27.5115 32.6961 27.2853 32.7586C27.0591 32.8211 26.8212 32.8279 26.5918 32.7783L16.6797 30.3003C16.4986 30.2498 16.3299 30.1626 16.1841 30.0439L6.83594 22.7466" stroke="white" stroke-width="2" stroke-linecap="round" stroke-linejoin="round"/>
<path d="M34.1803 26.1304L26.6608 20.6616L24.4732 22.3023C23.5255 23.0096 22.3746 23.3918 21.192 23.3918C20.0094 23.3918 18.8585 23.0096 17.9108 22.3023L16.9879 21.6016C16.8318 21.4829 16.7028 21.3325 16.6092 21.1602C16.5157 20.988 16.4598 20.7978 16.4452 20.6023C16.4307 20.4068 16.4578 20.2104 16.5249 20.0262C16.5919 19.842 16.6973 19.6741 16.8341 19.5337L23.5333 12.8516C23.6592 12.7263 23.8085 12.6272 23.9727 12.5597C24.1369 12.4923 24.3128 12.4579 24.4903 12.4585H31.4459" stroke="white" stroke-width="2" stroke-linecap="round" stroke-linejoin="round"/>
<path d="M12.4072 12.2705L21.1743 9.70702C21.4858 9.61769 21.8189 9.64192 22.1143 9.77538L28.0273 12.4585" stroke="white" stroke-width="2" stroke-linecap="round" stroke-linejoin="round"/>
<path d="M19.1406 36.3843L13.9966 35.0854C13.787 35.0381 13.5929 34.9381 13.4326 34.7949L9.57031 31.4453" stroke="white" stroke-width="2" stroke-linecap="round" stroke-linejoin="round"/>
</svg>
