<svg width="43" height="43" viewBox="0 0 43 43" fill="none" xmlns="http://www.w3.org/2000/svg">
<path d="M21.5 30.2344C25.2107 30.2344 28.2188 27.2263 28.2188 23.5156C28.2188 19.805 25.2107 16.7969 21.5 16.7969C17.7893 16.7969 14.7812 19.805 14.7812 23.5156C14.7812 27.2263 17.7893 30.2344 21.5 30.2344Z" stroke="#6B77E5" stroke-width="2" stroke-linecap="round" stroke-linejoin="round"/>
<path d="M32.9219 19.4844C34.4869 19.4818 36.0309 19.8449 37.4307 20.5448C38.8305 21.2447 40.0474 22.262 40.9844 23.5156" stroke="#6B77E5" stroke-width="2" stroke-linecap="round" stroke-linejoin="round"/>
<path d="M2.01562 23.5156C2.95255 22.262 4.16945 21.2447 5.56927 20.5448C6.96909 19.8449 8.51309 19.4818 10.0781 19.4844" stroke="#6B77E5" stroke-width="2" stroke-linecap="round" stroke-linejoin="round"/>
<path d="M11.8252 36.2813C12.7101 34.4691 14.0862 32.9418 15.7967 31.8735C17.5073 30.8052 19.4835 30.2388 21.5002 30.2388C23.5169 30.2388 25.4931 30.8052 27.2037 31.8735C28.9142 32.9418 30.2903 34.4691 31.1752 36.2813" stroke="#6B77E5" stroke-width="2" stroke-linecap="round" stroke-linejoin="round"/>
<path d="M10.0777 19.4844C9.05755 19.4854 8.05815 19.1961 7.1963 18.6502C6.33445 18.1044 5.64573 17.3245 5.21064 16.4018C4.77554 15.4791 4.61202 14.4515 4.7392 13.4393C4.86637 12.4271 5.27898 11.472 5.92881 10.6856C6.57865 9.89915 7.43887 9.3139 8.40897 8.99821C9.37907 8.68251 10.419 8.64941 11.4072 8.90278C12.3954 9.15615 13.2911 9.68551 13.9896 10.429C14.6881 11.1725 15.1607 12.0995 15.3519 13.1016" stroke="#6B77E5" stroke-width="2" stroke-linecap="round" stroke-linejoin="round"/>
<path d="M27.6475 13.1016C27.8387 12.0995 28.3113 11.1725 29.0098 10.429C29.7083 9.68551 30.604 9.15615 31.5922 8.90278C32.5804 8.64941 33.6203 8.68251 34.5904 8.99821C35.5605 9.3139 36.4208 9.89915 37.0706 10.6856C37.7204 11.472 38.133 12.4271 38.2602 13.4393C38.3874 14.4515 38.2239 15.4791 37.7888 16.4018C37.3537 17.3245 36.665 18.1044 35.8031 18.6502C34.9413 19.1961 33.9418 19.4854 32.9217 19.4844" stroke="#6B77E5" stroke-width="2" stroke-linecap="round" stroke-linejoin="round"/>
</svg>
