<svg width="43" height="43" viewBox="0 0 43 43" fill="none" xmlns="http://www.w3.org/2000/svg">
<path d="M10.7503 36.2813C10.3939 36.2813 10.0521 36.1397 9.80012 35.8877C9.54812 35.6357 9.40654 35.2939 9.40654 34.9376V27.7653C8.66935 28.1169 7.85232 28.2676 7.03818 28.202C6.34883 28.1514 5.67911 27.9494 5.0767 27.6105C4.47428 27.2715 3.95398 26.804 3.55282 26.2411C3.15166 25.6782 2.8795 25.0338 2.75572 24.3538C2.63193 23.6737 2.65957 22.9748 2.83665 22.3066C3.01373 21.6385 3.33591 21.0176 3.78026 20.4881C4.22461 19.9586 4.7802 19.5336 5.40749 19.2433C6.03478 18.953 6.71835 18.8045 7.40955 18.8085C8.10076 18.8124 8.78259 18.9686 9.40654 19.2661V12.0938C9.40654 11.7374 9.54812 11.3956 9.80012 11.1436C10.0521 10.8916 10.3939 10.75 10.7503 10.75H18.5944C18.2428 10.0129 18.0921 9.19583 18.1577 8.38169C18.2084 7.69234 18.4103 7.02262 18.7493 6.4202C19.0882 5.81779 19.5557 5.29749 20.1186 4.89633C20.6815 4.49516 21.3259 4.22301 22.006 4.09922C22.686 3.97544 23.385 4.00307 24.0531 4.18016C24.7212 4.35724 25.3421 4.67942 25.8716 5.12377C26.4011 5.56811 26.8261 6.1237 27.1164 6.75099C27.4067 7.37829 27.5552 8.06186 27.5512 8.75306C27.5473 9.44426 27.3911 10.1261 27.0937 10.75H34.9378C35.2942 10.75 35.636 10.8916 35.888 11.1436C36.14 11.3956 36.2815 11.7374 36.2815 12.0938V19.2661C35.5443 18.9144 34.7273 18.7637 33.9132 18.8293C33.2238 18.88 32.5541 19.082 31.9517 19.4209C31.3493 19.7598 30.829 20.2274 30.4278 20.7903C30.0267 21.3532 29.7545 21.9975 29.6307 22.6776C29.5069 23.3576 29.5346 24.0566 29.7117 24.7247C29.8887 25.3929 30.2109 26.0138 30.6553 26.5432C31.0996 27.0727 31.6552 27.4977 32.2825 27.788C32.9098 28.0783 33.5934 28.2268 34.2846 28.2229C34.9758 28.2189 35.6576 28.0627 36.2815 27.7653V34.9376C36.2815 35.2939 36.14 35.6357 35.888 35.8877C35.636 36.1397 35.2942 36.2813 34.9378 36.2813H10.7503Z" stroke="white" stroke-width="2" stroke-linecap="round" stroke-linejoin="round"/>
</svg>
