<svg width="42" height="41" viewBox="0 0 42 41" fill="none" xmlns="http://www.w3.org/2000/svg">
<path d="M40.5114 11.0065L38.1511 14.0641L37.6577 17.8962L33.826 18.3891L30.7684 20.7495L27.7108 18.3891L23.8791 17.8962L23.3857 14.0641L21.0254 11.0065L23.3857 7.94928L23.8791 4.11715L27.7108 3.6242L30.7684 1.26343L33.826 3.6242L37.6577 4.11715L38.1511 7.94928L40.5114 11.0065Z" stroke="#40DDB6" stroke-width="2" stroke-miterlimit="10"/>
<path d="M36.068 17.5837V29.0989L30.7679 25.5475L25.4678 29.0989V17.5837" stroke="#40DDB6" stroke-width="2" stroke-miterlimit="10"/>
<path d="M22.8881 20.8303C21.2864 23.0908 18.6507 24.5513 15.6959 24.5513C11.0976 24.5513 7.27298 21.0145 6.91328 16.4304L5.87891 3.23169H21.7898" stroke="#40DDB6" stroke-width="2" stroke-miterlimit="10"/>
<path d="M6.67245 16.453H4.46458C3.38466 16.453 2.4752 15.6451 2.3482 14.5727L1.01512 8.25781C0.864729 6.99032 1.85524 5.87573 3.1315 5.87573H6.07714" stroke="#40DDB6" stroke-width="2" stroke-miterlimit="10"/>
<path d="M17.8662 24.1174C17.8662 24.1174 18.3291 29.4723 21.1055 31.8519" stroke="#40DDB6" stroke-width="2" stroke-miterlimit="10"/>
<path d="M13.6788 24.1174C13.6788 24.1174 13.2159 29.4723 10.4395 31.8519" stroke="#40DDB6" stroke-width="2" stroke-miterlimit="10"/>
<path d="M23.9708 36.1379H7.57617V33.7248C7.57617 32.5377 8.46391 31.5757 9.55928 31.5757H21.9873C23.0826 31.5757 23.9704 32.5377 23.9704 33.7248V36.1379H23.9708Z" stroke="#40DDB6" stroke-width="2" stroke-miterlimit="10"/>
<path d="M25.8433 39.4331H5.70215V38.2868C5.70215 37.0997 6.58989 36.1377 7.68526 36.1377H23.8601C24.9555 36.1377 25.8433 37.0997 25.8433 38.2868V39.4331V39.4331Z" stroke="#40DDB6" stroke-width="2" stroke-miterlimit="10"/>
<path d="M5.70265 39.4331H25.8438V38.2868C25.8438 37.0997 24.956 36.1377 23.8606 36.1377H7.68576C6.59039 36.1377 5.70265 37.0997 5.70265 38.2868V39.4331V39.4331Z" stroke="#40DDB6" stroke-width="2" stroke-miterlimit="10"/>
<path d="M26.6367 13.0815L29.1487 14.9326L35.1645 7.26416" stroke="#40DDB6" stroke-width="2" stroke-miterlimit="10"/>
</svg>
