<svg width="171" height="45" viewBox="0 0 171 45" fill="none" xmlns="http://www.w3.org/2000/svg">
<path d="M36.3029 44.1808H8.32415C3.72629 44.1808 0 40.4918 0 35.9399V8.24092C0 3.68903 3.72629 0 8.32415 0H36.3029C40.9008 0 44.6271 3.68903 44.6271 8.24092V35.9399C44.6271 40.4918 40.9008 44.1808 36.3029 44.1808Z" fill="#40DDB6"/>
<path d="M30.3529 22.4969C31.1486 23.4848 31.5529 24.6353 31.5529 25.9358C31.5529 27.8491 30.9087 29.3497 29.6202 30.4127C28.3318 31.4756 26.4876 32.0259 24.0876 32.0259H13.6035V9.7041H23.835C26.1339 9.7041 27.9024 10.2043 29.1529 11.1922C30.4034 12.1801 31.035 13.5932 31.035 15.419C31.035 16.7695 30.6687 17.8825 29.9487 18.7829C29.2287 19.6832 28.2813 20.2585 27.1066 20.5336C28.4834 20.8587 29.5571 21.509 30.3529 22.4969ZM19.0477 18.8329H22.6224C24.5171 18.8329 25.4645 18.0326 25.4645 16.4319C25.4645 14.8312 24.4919 14.0309 22.5592 14.0309H19.0477V18.8329ZM25.9697 25.1855C25.9697 24.3852 25.7045 23.7599 25.174 23.3097C24.6434 22.8596 23.8855 22.6345 22.9129 22.6345H19.0603V27.649H22.9508C24.9592 27.6365 25.9697 26.8237 25.9697 25.1855Z" fill="white"/>
<path d="M70.4835 32.0259L65.6078 23.5974H64.3699V32.0259H58.9131V9.7041H68.2225C70.0035 9.7041 71.5193 10.0042 72.7446 10.617C73.9825 11.2297 74.9046 12.0676 75.5235 13.1305C76.1424 14.1935 76.4456 15.4065 76.4456 16.782C76.4456 18.4077 75.9909 19.7833 75.094 20.9213C74.1846 22.0592 72.8835 22.8345 71.153 23.2597L76.5087 32.0384H70.4835V32.0259ZM64.3699 19.9083H67.7425C68.8288 19.9083 69.6246 19.6707 70.1299 19.1955C70.6351 18.7203 70.9004 18.0201 70.9004 17.0947C70.9004 16.2068 70.6351 15.519 70.1172 15.0063C69.5993 14.5061 68.8035 14.2435 67.7425 14.2435H64.3699V19.9083Z" fill="#37393F"/>
<path d="M101.127 27.9614H92.6769L91.2747 32.0381H85.54L93.801 9.87891H100.079L108.34 32.0381H102.542L101.127 27.9614ZM99.7252 23.8472L96.921 15.6438L94.0789 23.8472H99.7252Z" fill="#37393F"/>
<path d="M138.441 32.0259H132.984L123.864 18.3202V32.0259H118.407V9.7041H123.864L132.984 23.5348V9.7041H138.441V32.0259Z" fill="#37393F"/>
<path d="M169.035 26.6486C168.087 28.3368 166.723 29.6623 164.955 30.6127C163.174 31.5631 161.089 32.0383 158.689 32.0383H150.176V9.71655H158.689C161.115 9.71655 163.211 10.1792 164.967 11.1046C166.736 12.03 168.087 13.3305 169.035 15.0187C169.982 16.7069 170.449 18.6327 170.449 20.8337C170.449 23.0096 169.969 24.9479 169.035 26.6486ZM163.161 25.5231C164.336 24.4101 164.929 22.8345 164.929 20.8211C164.929 18.7953 164.336 17.2322 163.161 16.1192C161.986 15.0062 160.332 14.4435 158.197 14.4435H155.62V27.1988H158.197C160.332 27.1988 161.986 26.6486 163.161 25.5231Z" fill="#37393F"/>
</svg>
