<svg width="120" height="72" viewBox="0 0 120 72" fill="none" xmlns="http://www.w3.org/2000/svg">
<path d="M61.484 60.8636C47.7675 74.8397 25.2409 75.0546 11.2648 61.3291C10.656 60.7293 10.065 60.1115 9.50098 59.4758L10.844 58.2939C11.3812 58.8938 11.9363 59.4937 12.5182 60.0578C25.7871 73.0849 47.1856 72.8879 60.2127 59.6101L61.484 60.8636Z" fill="#40DDB6"/>
<path d="M63.4712 13.3127L62.0924 14.4587C61.3583 13.5813 60.5704 12.7218 59.7556 11.916C46.4868 -1.11111 25.0883 -0.905181 12.0612 12.3637C11.1748 13.2679 10.3243 14.2349 9.54532 15.2287L8.13965 14.1275C8.9544 13.0799 9.84974 12.0682 10.7898 11.1102C24.5063 -2.86596 47.0329 -3.08084 61.0091 10.6357C61.8776 11.4862 62.7013 12.3905 63.4712 13.3127Z" fill="#40DDB6"/>
<path d="M110.888 12.0413L109.545 13.2231C109.008 12.6233 108.453 12.0234 107.871 11.4593C95.6494 -0.529196 76.3908 -1.47825 63.0861 9.26575L61.958 7.86903C75.97 -3.44798 96.2403 -2.45416 109.115 10.179C109.733 10.7878 110.324 11.4056 110.888 12.0413Z" fill="#40DDB6"/>
<path d="M109.59 60.4164C97.709 72.5213 78.8354 74.5358 64.707 65.2064L65.6919 63.7112C79.104 72.5661 97.0286 70.65 108.31 59.1629C109.196 58.2586 110.047 57.2917 110.826 56.2979L112.231 57.3991C111.417 58.4467 110.53 59.4584 109.59 60.4164Z" fill="#40DDB6"/>
<path d="M4.7998 54.4181L5.22061 54.1585L6.05327 55.5015L6.98442 54.9195L6.33082 53.872L6.75163 53.6123L7.40522 54.6598L8.79299 53.8003L9.11531 54.3196L5.94583 56.2894L4.7998 54.4181Z" fill="#37393F"/>
<path d="M5.90138 49.3061L5.4179 48.1421L5.87452 47.9541L6.59974 49.6821L3.15271 51.1146L2.91992 50.5506L5.90138 49.3061Z" fill="#37393F"/>
<path d="M4.5402 44.3903C4.44172 44.7126 4.2716 44.9902 4.02091 45.214C3.77022 45.4468 3.47476 45.599 3.11662 45.6796C2.75849 45.7601 2.41826 45.7512 2.1049 45.6437C1.79153 45.5363 1.51398 45.3662 1.29014 45.1155C1.06631 44.8648 0.914104 44.5693 0.842477 44.2291C0.761897 43.8889 0.770851 43.5576 0.869337 43.2353C0.967824 42.913 1.13794 42.6444 1.37968 42.4116C1.63037 42.1878 1.92583 42.0355 2.28396 41.955C2.6421 41.8744 2.98232 41.8833 3.30464 41.9908C3.62696 42.0893 3.89556 42.2594 4.1194 42.5101C4.34323 42.7608 4.49544 43.0562 4.56706 43.3965C4.64764 43.7367 4.62974 44.068 4.5402 44.3903ZM3.74336 42.904C3.59115 42.7429 3.40313 42.6265 3.17034 42.5638C2.93756 42.5011 2.69582 42.5011 2.42722 42.5638C2.15862 42.6265 1.93478 42.7339 1.75572 42.8861C1.57665 43.0383 1.4513 43.2174 1.38863 43.4323C1.32596 43.6472 1.317 43.871 1.37072 44.1127C1.42444 44.3545 1.52293 44.5604 1.67514 44.7215C1.82734 44.8827 2.01536 44.9991 2.2392 45.0618C2.46303 45.1244 2.71372 45.1244 2.98232 45.0618C3.25092 44.9991 3.47476 44.8917 3.65382 44.7395C3.83289 44.5872 3.95824 44.4082 4.02986 44.1933C4.10149 43.9784 4.10149 43.7546 4.04777 43.5129C3.99405 43.2711 3.89556 43.0741 3.74336 42.904Z" fill="#37393F"/>
<path d="M3.7078 36.4844L2.24841 37.3977L2.26632 37.8632L3.76152 37.8095L3.77943 38.4183L0.0458911 38.5437L0.0011244 37.2634C-0.00782893 36.9769 0.0369377 36.7351 0.126471 36.5292C0.216004 36.3233 0.350304 36.1711 0.511464 36.0726C0.672624 35.9651 0.860644 35.9114 1.06657 35.9025C1.30831 35.8935 1.53214 35.9562 1.73807 36.0905C1.944 36.2248 2.08725 36.4397 2.16783 36.7262L3.68094 35.7502L3.7078 36.4844ZM1.77388 37.8811L1.74702 37.2007C1.73807 36.9679 1.6754 36.7978 1.559 36.6903C1.44261 36.574 1.28145 36.5292 1.09343 36.5292C0.905411 36.5381 0.753204 36.6008 0.645764 36.7172C0.538324 36.8336 0.493558 37.0127 0.502511 37.2455L0.529371 37.917L1.77388 37.8811Z" fill="#37393F"/>
<path d="M3.40368 30.1639L3.1888 31.7128L3.90507 32.0888L3.81554 32.7245L0.296875 30.8801L0.395362 30.1818L4.28111 29.376L4.19157 30.0117L3.40368 30.1639ZM2.88439 30.2624L1.08477 30.6205L2.72323 31.4621L2.88439 30.2624Z" fill="#37393F"/>
<path d="M4.72809 25.5971L5.09518 24.3884L5.56971 24.5317L5.02355 26.3223L1.45117 25.239L1.63024 24.657L4.72809 25.5971Z" fill="#37393F"/>
<path d="M6.81483 21.1384C6.64472 21.2816 6.46565 21.3712 6.27763 21.407C6.08066 21.4428 5.89264 21.4159 5.69567 21.3174L5.98217 20.7265C6.13438 20.7802 6.27763 20.7802 6.42089 20.7265C6.56414 20.6728 6.68053 20.5475 6.77007 20.3684C6.8596 20.1804 6.88646 20.0103 6.84169 19.858C6.80588 19.7058 6.70739 19.5984 6.56414 19.5268C6.44775 19.4731 6.34031 19.4641 6.24182 19.491C6.14333 19.5268 6.04485 19.5805 5.95531 19.6611C5.87473 19.7417 5.76729 19.858 5.63299 20.0103C5.47183 20.1983 5.32858 20.3505 5.20323 20.4579C5.07789 20.5654 4.92568 20.637 4.75557 20.6728C4.58545 20.7086 4.38848 20.6728 4.18255 20.5743C3.98558 20.4848 3.84233 20.3505 3.74384 20.1893C3.64535 20.0192 3.60059 19.8312 3.60059 19.6253C3.60954 19.4104 3.66326 19.1955 3.7707 18.9627C3.92291 18.6404 4.13779 18.4076 4.39743 18.2733C4.65708 18.139 4.93463 18.139 5.23009 18.2464L4.93463 18.8553C4.80929 18.8105 4.68394 18.8195 4.54069 18.8821C4.40639 18.9448 4.28999 19.0702 4.20941 19.2403C4.13779 19.4014 4.11093 19.5447 4.14674 19.6879C4.18255 19.8312 4.27209 19.9297 4.42429 20.0013C4.53173 20.055 4.63022 20.064 4.71975 20.0282C4.81824 20.0013 4.90777 19.9386 4.98835 19.867C5.06893 19.7864 5.17637 19.679 5.30172 19.5268C5.47183 19.3298 5.61509 19.1776 5.74939 19.0702C5.87473 18.9627 6.02694 18.8821 6.20601 18.8463C6.38507 18.8105 6.57309 18.8374 6.78797 18.9448C6.95809 19.0254 7.10134 19.1507 7.20878 19.3119C7.31622 19.4731 7.36994 19.67 7.37889 19.8849C7.38785 20.1087 7.33413 20.3326 7.21773 20.5743C7.11925 20.8071 6.98495 20.9951 6.81483 21.1384Z" fill="#37393F"/>
<path d="M115.472 17.7446L115.042 17.9953L114.245 16.6255L113.296 17.1806L113.914 18.246L113.484 18.4967L112.866 17.4313L111.452 18.255L111.147 17.7267L114.38 15.8555L115.472 17.7446Z" fill="#37393F"/>
<path d="M114.227 22.8208L114.675 24.0026L114.218 24.1817L113.547 22.4268L117.03 21.0928L117.245 21.6658L114.227 22.8208Z" fill="#37393F"/>
<path d="M115.445 27.7806C115.553 27.4583 115.732 27.1897 115.983 26.9748C116.233 26.7599 116.547 26.6077 116.905 26.5361C117.263 26.4644 117.603 26.4913 117.916 26.5987C118.23 26.7151 118.498 26.8942 118.713 27.1538C118.928 27.4135 119.071 27.709 119.134 28.0492C119.197 28.3894 119.179 28.7207 119.071 29.043C118.964 29.3564 118.785 29.625 118.534 29.8488C118.284 30.0726 117.979 30.2159 117.621 30.2786C117.263 30.3502 116.923 30.3233 116.609 30.2159C116.287 30.1085 116.027 29.9204 115.812 29.6697C115.598 29.4101 115.454 29.1146 115.392 28.7654C115.32 28.4252 115.338 28.094 115.445 27.7806ZM116.197 29.2847C116.35 29.4549 116.529 29.5712 116.761 29.6429C116.994 29.7145 117.236 29.7145 117.505 29.6697C117.773 29.616 117.997 29.5175 118.185 29.3743C118.364 29.231 118.498 29.052 118.57 28.8371C118.642 28.6222 118.651 28.3984 118.606 28.1566C118.561 27.9149 118.463 27.709 118.319 27.5388C118.176 27.3687 117.988 27.2523 117.764 27.1807C117.54 27.1091 117.29 27.1091 117.021 27.1538C116.753 27.2076 116.52 27.3061 116.341 27.4493C116.162 27.5926 116.027 27.7716 115.956 27.9865C115.884 28.2014 115.866 28.4252 115.911 28.667C115.956 28.9087 116.054 29.1146 116.197 29.2847Z" fill="#37393F"/>
<path d="M116.045 35.705L117.531 34.8365V34.371L116.036 34.3799V33.7711L119.77 33.7532L119.779 35.0425C119.779 35.329 119.734 35.5707 119.635 35.7677C119.537 35.9646 119.403 36.1169 119.232 36.2153C119.062 36.3138 118.874 36.3675 118.668 36.3675C118.427 36.3675 118.203 36.2959 118.006 36.1616C117.809 36.0273 117.666 35.8035 117.594 35.508L116.054 36.4392L116.045 35.705ZM118.015 34.362V35.0425C118.015 35.2752 118.077 35.4454 118.194 35.5617C118.31 35.6781 118.462 35.7319 118.659 35.7319C118.856 35.7319 119 35.6692 119.116 35.5617C119.224 35.4454 119.277 35.2752 119.277 35.0425V34.362H118.015Z" fill="#37393F"/>
<path d="M116.161 42.0257L116.421 40.4857L115.713 40.0917L115.821 39.4561L119.286 41.3989L119.169 42.0973L115.257 42.7956L115.364 42.16L116.161 42.0257ZM116.689 41.9451L118.498 41.6317L116.886 40.7364L116.689 41.9451Z" fill="#37393F"/>
<path d="M114.711 46.5566L114.308 47.7564L113.843 47.5952L114.434 45.8135L117.979 46.9953L117.782 47.5773L114.711 46.5566Z" fill="#37393F"/>
<path d="M112.499 50.9524C112.669 50.8181 112.848 50.7286 113.045 50.7017C113.242 50.6749 113.43 50.7107 113.627 50.8092L113.332 51.3912C113.18 51.3285 113.036 51.3285 112.893 51.3822C112.75 51.4359 112.633 51.5523 112.535 51.7314C112.436 51.9194 112.41 52.0895 112.445 52.2417C112.481 52.3939 112.571 52.5103 112.714 52.582C112.821 52.6357 112.929 52.6536 113.036 52.6267C113.144 52.5999 113.233 52.5461 113.323 52.4656C113.412 52.385 113.52 52.2775 113.654 52.1253C113.824 51.9373 113.967 51.7941 114.102 51.6866C114.227 51.5792 114.379 51.5165 114.549 51.4807C114.72 51.4449 114.917 51.4896 115.122 51.5971C115.31 51.6956 115.454 51.8299 115.552 52C115.651 52.1701 115.687 52.3581 115.678 52.573C115.669 52.7879 115.597 53.0028 115.481 53.2266C115.319 53.5489 115.096 53.7727 114.836 53.8981C114.567 54.0234 114.29 54.0234 113.994 53.8981L114.308 53.2982C114.433 53.3519 114.567 53.343 114.711 53.2893C114.854 53.2266 114.961 53.1102 115.051 52.9401C115.131 52.7879 115.158 52.6357 115.131 52.4924C115.105 52.3492 115.015 52.2417 114.863 52.1701C114.764 52.1164 114.666 52.1074 114.567 52.1343C114.469 52.1611 114.379 52.2149 114.29 52.2865C114.2 52.3581 114.093 52.4745 113.967 52.6178C113.797 52.8058 113.645 52.958 113.511 53.0654C113.377 53.1729 113.224 53.2445 113.054 53.2803C112.875 53.3161 112.687 53.2714 112.472 53.1639C112.302 53.0744 112.168 52.949 112.069 52.7789C111.962 52.6088 111.917 52.4208 111.908 52.197C111.908 51.9731 111.971 51.7493 112.087 51.5165C112.186 51.2748 112.329 51.0957 112.499 50.9524Z" fill="#37393F"/>
<path d="M33.5406 27.9603C34.615 27.9603 35.4298 27.8349 35.9939 27.5932C36.549 27.3425 36.916 27.1545 37.0862 27.0291C37.0862 27.2888 37.0324 27.6022 36.925 27.9603C36.8176 28.3274 36.6206 28.6766 36.343 29.0257C36.0655 29.366 35.6984 29.6614 35.2507 29.8942C34.8031 30.127 34.2301 30.2523 33.5406 30.2523C32.6632 30.2523 31.8127 30.0822 30.9979 29.751C30.1831 29.4197 29.3773 29.0615 28.5805 28.6676C27.7837 28.2826 27.0047 27.9245 26.2258 27.5842C25.4468 27.244 24.6589 27.0829 23.8442 27.0829C22.9668 27.0829 22.1878 27.2261 21.5253 27.5037C20.8627 27.7812 20.2987 28.1573 19.8331 28.6139C19.3675 29.0795 18.9915 29.5987 18.6871 30.1897C18.3827 30.7806 18.1409 31.3805 17.9618 31.9982C17.7828 32.6071 17.6574 33.2069 17.5948 33.7889C17.5321 34.3709 17.4963 34.8812 17.4963 35.3378C17.4963 35.9646 17.55 36.448 17.6574 36.8062C17.7649 37.1643 17.8365 37.3881 17.8813 37.4956V37.5314C17.4336 37.4061 17.0217 37.218 16.6547 36.9852C16.3502 36.7704 16.0816 36.4839 15.831 36.1168C15.5803 35.7497 15.4639 35.2752 15.4639 34.7021C15.4639 33.7979 15.6608 32.8667 16.0637 31.8998C16.4577 30.9328 17.0128 30.0554 17.7201 29.2585C18.4274 28.4617 19.2869 27.8081 20.2987 27.2888C21.3104 26.7695 22.4296 26.5188 23.6472 26.5188C24.3545 26.5188 25.1424 26.5904 26.0019 26.7426C26.8615 26.8948 27.7389 27.056 28.6253 27.244C29.5206 27.4231 30.3891 27.5932 31.2396 27.7454C32.0813 27.8887 32.8512 27.9603 33.5406 27.9603ZM21.4178 44.4702C21.4178 44.2554 21.4805 43.8972 21.5969 43.3958C21.7133 42.8944 21.8745 42.2946 22.0804 41.5962C22.2863 40.8979 22.5191 40.1189 22.7877 39.2594C23.0563 38.3999 23.3338 37.5135 23.6114 36.5913C23.0294 36.7166 22.546 36.7793 22.161 36.7793C21.9013 36.7793 21.6864 36.7346 21.5163 36.654C21.3462 36.5734 21.203 36.4749 21.0955 36.3585C20.9881 36.2421 20.9164 36.1347 20.8717 36.0272C20.8269 35.9198 20.809 35.8392 20.809 35.7676C20.8717 35.8303 20.997 35.9019 21.1761 35.9735C21.3552 36.0451 21.5611 36.0899 21.776 36.0899C22.0088 36.0899 22.3132 36.0541 22.6803 35.9735C23.0473 35.9019 23.4413 35.8034 23.871 35.696C24.0859 34.917 24.3008 34.147 24.5157 33.386C24.7306 32.616 24.9186 31.9087 25.0797 31.2641C25.2409 30.6194 25.3663 30.0643 25.4647 29.5987C25.5632 29.1332 25.608 28.8019 25.608 28.6139C25.608 28.5243 25.608 28.4527 25.608 28.39C25.608 28.3274 25.599 28.2199 25.5722 28.0677C25.7244 28.1125 25.9393 28.1841 26.2168 28.2916C26.4944 28.399 26.763 28.5243 27.0226 28.6586C27.2823 28.8019 27.5061 28.9362 27.7031 29.0615C27.9 29.1869 27.9896 29.2854 27.9896 29.3481C27.9896 29.6883 27.8463 30.3687 27.5509 31.3805C27.2644 32.3922 26.8973 33.583 26.4675 34.9618C27.0942 34.7917 27.5956 34.6305 27.9806 34.4962C28.3656 34.353 28.7238 34.2545 29.0461 34.1918C29.0461 34.0217 29.0282 33.8874 28.9834 33.8068C29.261 33.8516 29.5475 33.8963 29.834 33.9322C30.1205 33.9769 30.3891 34.0306 30.6398 34.0933C30.8905 34.156 31.0874 34.2366 31.2396 34.3351C31.3918 34.4335 31.4635 34.541 31.4635 34.6753C31.4635 34.8723 31.4187 35.0961 31.3381 35.3557C31.2486 35.6154 31.1591 35.884 31.0516 36.1615C30.9442 36.4391 30.8546 36.7166 30.7741 37.0032C30.6935 37.2897 30.6756 37.5493 30.6935 37.809C30.5413 37.809 30.3264 37.809 30.0488 37.809C29.7713 37.809 29.4937 37.8 29.2251 37.7731C28.9565 37.7552 28.7238 37.7015 28.5178 37.6299C28.3119 37.5583 28.2134 37.4329 28.2134 37.2628C28.2134 37.1375 28.2492 36.9673 28.3298 36.7614C28.4014 36.5555 28.491 36.3406 28.5895 36.0989C28.6879 35.8661 28.7775 35.6243 28.867 35.3916C28.9565 35.1588 29.0192 34.9528 29.064 34.7827C28.6969 34.8902 28.3029 35.0424 27.8732 35.2304C27.4434 35.4274 26.9062 35.6243 26.2616 35.8392C25.984 36.7883 25.6975 37.7463 25.411 38.7222C25.1245 39.6981 24.8559 40.6293 24.6231 41.5067C24.3903 42.3841 24.1844 43.181 24.0233 43.8793C23.8621 44.5777 23.7726 45.1328 23.7457 45.5357C23.6562 45.5178 23.4861 45.4641 23.2264 45.3745C22.9668 45.285 22.7071 45.1955 22.4385 45.097C22.1699 44.9985 21.9371 44.9 21.7312 44.7926C21.5253 44.6851 21.4178 44.5777 21.4178 44.4702Z" fill="#6B77E5"/>
<path d="M92.1045 41.7131C92.2567 41.158 92.4985 40.2806 92.8297 39.0987C93.161 37.9169 93.5729 36.6007 94.0563 35.1503C94.5398 33.6999 95.0949 32.2047 95.7306 30.6736C96.3663 29.1337 97.0378 27.7369 97.763 26.4656C98.4793 25.1942 99.2493 24.1556 100.055 23.3409C100.861 22.5261 101.694 22.1143 102.553 22.1143C102.875 22.1143 103.18 22.2217 103.475 22.4366C103.762 22.6515 104.03 22.8842 104.263 23.1439C104.523 23.4483 104.765 23.7885 105.006 24.1735C104.944 24.1556 104.863 24.1288 104.782 24.1109C104.72 24.0929 104.639 24.0661 104.559 24.0482C104.469 24.0303 104.388 24.0124 104.299 24.0124C103.207 24.0124 102.168 24.3974 101.201 25.1763C100.234 25.9463 99.3299 26.9311 98.4972 28.1219C97.6556 29.3127 96.9035 30.6378 96.2231 32.0883C95.5426 33.5387 94.9517 34.9444 94.4324 36.2963C93.9131 37.6483 93.4833 38.8749 93.1252 39.9672C92.7671 41.0595 92.5164 41.8564 92.3642 42.3488C92.4895 42.6084 92.6238 42.7696 92.7492 42.8323C92.2746 42.8949 91.8359 42.9039 91.4241 42.8502C91.0122 42.7965 90.6541 42.6442 90.3318 42.4025C90.0094 42.1518 89.7498 41.8026 89.5618 41.3371C89.3648 40.8715 89.2574 40.2895 89.2395 39.5822C89.2215 38.9197 89.1947 38.0691 89.1768 37.0484C89.1589 36.0277 89.132 35.0071 89.1141 33.9864C89.0962 32.9657 89.0783 32.0525 89.0693 31.2467C89.0604 30.4409 89.0514 29.9305 89.0514 29.7156V29.1963C88.8813 29.7156 88.5859 30.5393 88.183 31.6764C87.7711 32.8135 87.2697 34.0938 86.6698 35.5084C86.07 36.9231 85.3985 38.3825 84.6553 39.8777C83.9122 41.3729 83.1333 42.7427 82.3185 43.9872C81.5038 45.2318 80.6622 46.2524 79.8026 47.0493C78.9431 47.8461 78.0926 48.2401 77.2599 48.2401C76.9376 48.2401 76.669 48.1237 76.4541 47.882C76.2392 47.6492 76.0691 47.3806 75.9348 47.0761C75.7826 46.7359 75.6572 46.333 75.5498 45.8854C75.6393 45.9301 75.7199 45.957 75.8095 45.9838C75.9796 46.0286 76.1318 46.0465 76.2571 46.0465C77.3136 46.0465 78.3343 45.6794 79.3192 44.9542C80.304 44.229 81.2352 43.2799 82.1036 42.1339C82.9721 40.9879 83.7869 39.7165 84.539 38.3287C85.291 36.941 85.9625 35.589 86.5535 34.2639C87.1444 32.9388 87.6458 31.7301 88.0666 30.6378C88.4874 29.5455 88.8007 28.7218 89.0156 28.1846C88.9261 27.925 88.8903 27.7459 88.8903 27.6385C89.1499 27.6385 89.4364 27.6474 89.7408 27.6743C90.0542 27.6922 90.3497 27.7817 90.6272 27.9339C90.9048 28.0861 91.1465 28.301 91.3345 28.5965C91.5315 28.883 91.621 29.3038 91.621 29.841C91.621 30.1185 91.63 30.5304 91.6569 31.0676C91.6748 31.6048 91.6927 32.2047 91.7016 32.8583C91.7106 33.5118 91.7285 34.1923 91.7464 34.9086C91.7643 35.6159 91.7822 36.2963 91.7911 36.941C91.8001 37.5856 91.8091 38.1586 91.827 38.6511C91.8359 39.1435 91.8449 39.5106 91.8449 39.7434C91.8717 40.4955 91.9523 41.149 92.1045 41.7131Z" fill="#6B77E5"/>
<path d="M61.9672 29.5363C61.8149 33.3862 60.2392 35.9737 58.4216 35.9021C56.6041 35.8305 55.2432 33.1266 55.3954 29.2766C55.5476 25.4267 58.9857 21.9707 58.9857 21.9707C58.9857 21.9707 62.1194 25.6863 61.9672 29.5363Z" fill="#37393F"/>
<path d="M66.2922 28.2648C66.2742 28.417 65.8266 32.0163 63.5882 34.1292C62.5228 35.141 61.3678 35.8841 60.3471 36.2154C59.2548 36.5735 58.3595 36.4571 57.8223 35.8841C56.7748 34.7828 57.6701 32.3296 59.8905 30.2166C62.1289 28.1036 65.737 27.853 65.8982 27.844L66.3459 27.8171L66.2922 28.2648ZM58.3685 35.3648C58.6908 35.714 59.3175 35.7587 60.1144 35.4991C61.0276 35.2036 62.0841 34.5232 63.069 33.5831C64.6537 32.0879 65.2625 29.6705 65.4595 28.6498C64.4388 28.7931 61.9856 29.2676 60.4098 30.7628C58.9952 32.1058 58.1178 33.5831 58.1178 34.6217C58.1178 34.935 58.2073 35.1857 58.3685 35.3648Z" fill="#37393F"/>
<path d="M58.986 35.9286C58.6458 36.233 58.1802 36.3852 57.643 36.3583C56.3985 36.2956 54.7959 35.3108 53.3723 33.726C51.313 31.434 51.1519 27.8168 51.1429 27.6646L51.125 27.208L51.5727 27.2707C51.7249 27.2886 55.3062 27.8347 57.3655 30.1178C58.7532 31.6578 59.5411 33.2515 59.5411 34.496C59.559 35.0959 59.3621 35.5973 58.986 35.9286ZM53.9363 33.2157C55.2167 34.6303 56.6492 35.5525 57.6878 35.6062C58.028 35.6241 58.2966 35.5436 58.4846 35.3734C58.6906 35.1854 58.798 34.89 58.798 34.505C58.798 33.4574 58.0549 32.0159 56.8193 30.6282C55.3599 29.0076 52.9604 28.3361 51.9487 28.1123C52.0651 29.133 52.477 31.5862 53.9363 33.2157Z" fill="#37393F"/>
<path d="M59.0308 28.1662C59.0308 28.005 58.9055 27.8707 58.7354 27.8618C58.5653 27.8528 58.431 27.9871 58.422 28.1483L57.6162 48.159C57.6162 48.1679 57.6162 48.1679 57.6162 48.1679C57.6162 48.3291 57.7416 48.4634 57.9117 48.4723C58.0818 48.4813 58.2161 48.347 58.225 48.1769L59.0308 28.1662C59.0308 28.1751 59.0308 28.1751 59.0308 28.1662Z" fill="#37393F"/>
<path d="M70.8761 33.4581C70.8761 33.4312 70.8761 33.4133 70.8671 33.3864C70.8313 33.2253 70.6612 33.1268 70.5 33.1626C70.3747 33.1895 58.0907 36.2873 57.6699 46.9776C57.6699 46.9866 57.6699 46.9866 57.6699 46.9866C57.6699 47.1477 57.7953 47.282 57.9564 47.291C58.1265 47.2999 58.2608 47.1656 58.2698 46.9955C58.6816 36.7529 70.518 33.7714 70.6343 33.7446C70.7866 33.7177 70.8761 33.5924 70.8761 33.4581Z" fill="#37393F"/>
<path d="M67.1958 39.9489C67.1958 39.9399 67.1958 39.922 67.1958 39.9041C67.1689 39.734 67.0167 39.6176 66.8556 39.6445C66.766 39.6534 57.9201 40.9338 57.6426 47.7741V47.7831C57.6426 47.9442 57.7679 48.0785 57.938 48.0875C58.1082 48.0964 58.2425 47.9621 58.2514 47.792C58.5021 41.462 66.8556 40.2533 66.9361 40.2444C67.0883 40.2264 67.1958 40.1011 67.1958 39.9489Z" fill="#37393F"/>
<path d="M58.2876 46.4488C58.2876 36.1704 46.7109 32.2489 46.5945 32.2041C46.4334 32.1504 46.2632 32.2399 46.2095 32.4011C46.1648 32.5622 46.2453 32.7323 46.4065 32.7861C46.5229 32.8219 58.0995 36.7434 57.6787 46.986C57.6787 46.995 57.6787 46.995 57.6787 46.995C57.6787 47.1562 57.8041 47.2905 57.9652 47.2994C58.1354 47.3084 58.2697 47.1741 58.2786 47.004C58.2876 46.8159 58.2876 46.6279 58.2876 46.4488Z" fill="#37393F"/>
<path d="M58.2512 47.4875C58.2512 40.8979 49.7993 38.9818 49.7098 38.9639C49.5486 38.9281 49.3874 39.0356 49.3516 39.1967C49.3158 39.3668 49.4233 39.519 49.5844 39.5549C49.665 39.5728 57.8662 41.4261 57.6424 47.774V47.783C57.6424 47.9441 57.7678 48.0784 57.9379 48.0874C58.108 48.0963 58.2423 47.962 58.2512 47.7919C58.2512 47.6934 58.2512 47.586 58.2512 47.4875Z" fill="#37393F"/>
<path d="M72.7375 33.5477C72.6928 34.7385 71.6811 35.6696 70.4903 35.6248C69.3263 35.5801 68.4131 34.631 68.4131 33.3775C68.4579 32.1868 69.4696 31.2556 70.6604 31.3004C71.8243 31.3451 72.7375 32.2942 72.7375 33.4671V33.5477ZM70.5171 34.7922C71.2513 34.819 71.8691 34.246 71.9049 33.5118L72.3257 33.4581H71.9049C71.9049 32.7419 71.3408 32.1599 70.6246 32.1241C69.8904 32.0972 69.2726 32.6702 69.2368 33.4581C69.2368 34.1744 69.8009 34.7653 70.5171 34.7922Z" fill="#37393F"/>
<path d="M48.6625 32.5804C48.6357 33.1624 48.3939 33.6907 47.9642 34.0846C47.5433 34.4785 46.9882 34.6755 46.4063 34.6576C45.2423 34.6128 44.3291 33.6638 44.3291 32.4103C44.356 31.8284 44.5977 31.3001 45.0275 30.9062C45.4483 30.5122 46.0034 30.3152 46.5853 30.3332C47.7493 30.3779 48.6625 31.327 48.6625 32.4999V32.5804ZM46.4421 33.825C46.8002 33.8429 47.1404 33.7175 47.4001 33.4758C47.6597 33.234 47.8119 32.9028 47.8299 32.5446L48.2507 32.4909H47.8388C47.8388 31.7746 47.2747 31.1927 46.5585 31.1569C46.2003 31.139 45.8601 31.2643 45.6005 31.506C45.3408 31.7478 45.1886 32.0791 45.1707 32.4909C45.1618 33.2072 45.7258 33.7981 46.4421 33.825Z" fill="#37393F"/>
<path d="M68.6373 40.0206C68.6014 40.9876 67.7867 41.7396 66.8197 41.6949C65.8528 41.6591 65.1007 40.8443 65.1455 39.8773C65.1813 38.9104 65.996 38.1583 66.963 38.2031C67.9299 38.2389 68.6731 39.0536 68.6373 40.0206Z" fill="#37393F"/>
<path d="M51.3931 39.3311C51.3573 40.2981 50.5425 41.0502 49.5756 41.0054C48.6086 40.9696 47.8565 40.1549 47.9013 39.1879C47.9371 38.2209 48.7519 37.4689 49.7188 37.5136C50.6858 37.5494 51.4289 38.3642 51.3931 39.3311Z" fill="#37393F"/>
</svg>
