<svg width="137" height="44" viewBox="0 0 137 44" fill="none" xmlns="http://www.w3.org/2000/svg">
<path d="M12.1372 0V0.191665L11.333 0.383327V8.87548L12.1372 9.06714V9.2588H8.32476V9.06714L9.12895 8.87548V1.63651L5.9718 9.39149H5.56968L1.47432 1.63651V8.66907L2.54656 9.06714V9.2588H0V9.06714L1.07224 8.66907V0.383327L0.268049 0.191665V0H1.93597C2.18914 0 2.41253 0.0294858 2.59124 0.0884591C2.76994 0.147432 2.94867 0.221149 3.0827 0.324352C3.23163 0.427555 3.35076 0.545504 3.45501 0.678194C3.55926 0.810884 3.64861 0.97306 3.73797 1.13524L6.65683 6.66398L8.89067 1.13524C8.96513 0.943573 9.03961 0.781397 9.14386 0.648707C9.23321 0.516017 9.35232 0.398071 9.48635 0.294867C9.62038 0.191664 9.78422 0.117945 9.97782 0.0737155C10.1714 0.0294855 10.4097 0 10.7075 0H12.1372Z" fill="#40DDB6"/>
<path d="M16.9028 2.46191C17.4538 2.46191 17.9601 2.53563 18.392 2.69781C18.8239 2.85998 19.1962 3.09588 19.5089 3.39074C19.8216 3.70035 20.045 4.06893 20.2088 4.49649C20.3727 4.92405 20.4471 5.42532 20.4471 5.97082C20.4471 6.51632 20.3727 7.0176 20.2088 7.44515C20.045 7.87271 19.8067 8.24129 19.5089 8.5509C19.1962 8.86051 18.8239 9.08166 18.392 9.24384C17.9601 9.40602 17.4538 9.47973 16.9028 9.47973C16.3517 9.47973 15.8454 9.40602 15.4135 9.24384C14.9817 9.08166 14.6094 8.84577 14.2966 8.5509C13.9839 8.24129 13.7605 7.87271 13.5967 7.44515C13.4329 7.0176 13.3584 6.51632 13.3584 5.97082C13.3584 5.42532 13.4329 4.92405 13.5967 4.49649C13.7605 4.06893 13.9988 3.70035 14.2966 3.39074C14.6094 3.08113 14.9817 2.85998 15.4135 2.69781C15.8454 2.53563 16.3369 2.46191 16.9028 2.46191ZM16.9028 9.2291C17.0517 9.2291 17.2006 9.18487 17.3644 9.08166C17.5133 8.97846 17.6474 8.81628 17.7665 8.56565C17.8856 8.31501 17.9899 7.99066 18.0644 7.57784C18.1388 7.15029 18.1835 6.61953 18.1835 5.98557C18.1835 5.33686 18.1388 4.8061 18.0644 4.39329C17.9899 3.98047 17.8856 3.64138 17.7665 3.40549C17.6474 3.16959 17.5133 2.99267 17.3644 2.88947C17.2155 2.78627 17.0666 2.74204 16.9028 2.74204C16.7538 2.74204 16.6049 2.78627 16.4411 2.88947C16.2922 2.99267 16.1581 3.15485 16.039 3.40549C15.9198 3.65612 15.8156 3.98047 15.7412 4.39329C15.6667 4.82084 15.622 5.3516 15.622 5.98557C15.622 6.63427 15.6667 7.16503 15.7412 7.57784C15.8156 7.99066 15.9198 8.32975 16.039 8.56565C16.1581 8.80154 16.2922 8.97846 16.4411 9.08166C16.59 9.17012 16.7389 9.2291 16.9028 9.2291Z" fill="#40DDB6"/>
<path d="M26.9547 0C27.7589 0 28.161 0.398069 28.161 1.19421V8.89022L28.9652 9.08188V9.27355H27.7589C27.4313 9.27355 27.1781 9.22932 26.9845 9.12611C26.7909 9.02291 26.6271 8.90496 26.5228 8.78702C26.3888 8.63958 26.2846 8.46266 26.225 8.28574C26.1059 8.52164 25.9569 8.7133 25.7782 8.89022C25.6293 9.03765 25.4208 9.17034 25.1676 9.30303C24.9145 9.43572 24.6166 9.4947 24.2741 9.4947C23.8869 9.4947 23.5295 9.42098 23.2018 9.27355C22.8593 9.12611 22.5764 8.90496 22.3381 8.6101C22.0998 8.31523 21.8914 7.94665 21.7573 7.51909C21.6084 7.07679 21.5488 6.57552 21.5488 5.98579C21.5488 5.39605 21.6233 4.89478 21.7573 4.45248C21.9063 4.01018 22.0998 3.65634 22.3679 3.36148C22.6211 3.06661 22.9338 2.84546 23.2912 2.69803C23.6487 2.55059 24.0507 2.47688 24.4975 2.47688C24.7358 2.47688 24.9443 2.50636 25.1379 2.55059C25.3315 2.60957 25.4953 2.66854 25.6293 2.74226C25.7931 2.81597 25.9271 2.90443 26.0463 3.00764V0.427558L25.2421 0.235893V0.044231H26.9547V0ZM26.0165 3.39096C25.9123 3.28776 25.8229 3.1993 25.7038 3.12558C25.5995 3.05187 25.4953 2.99289 25.3761 2.93392C25.257 2.87495 25.1379 2.8602 25.0038 2.8602C24.84 2.8602 24.6762 2.90443 24.5273 2.99289C24.3784 3.08135 24.2592 3.22879 24.1401 3.44994C24.0358 3.67109 23.9465 3.99544 23.8869 4.39351C23.8274 4.80632 23.7976 5.32234 23.7976 5.97104C23.7976 6.605 23.8274 7.10628 23.8869 7.50435C23.9465 7.90242 24.021 8.21203 24.1252 8.43318C24.2146 8.65433 24.3188 8.8165 24.4528 8.89022C24.572 8.96394 24.6911 9.00817 24.8102 9.00817C25.0187 9.00817 25.1974 8.94919 25.3463 8.84599C25.4953 8.74279 25.6144 8.6101 25.7186 8.47741C25.8378 8.31523 25.9421 8.13831 26.0314 7.94665V3.39096H26.0165Z" fill="#40DDB6"/>
<path d="M33.4479 9.49438C32.3012 9.49438 31.4077 9.18477 30.7822 8.56555C30.1419 7.94633 29.8291 7.07648 29.8291 5.98547C29.8291 5.43997 29.9036 4.9387 30.0674 4.51114C30.2312 4.08358 30.4546 3.715 30.7376 3.40539C31.0205 3.09578 31.363 2.87463 31.78 2.71246C32.1821 2.55028 32.6288 2.47656 33.1203 2.47656C33.6266 2.47656 34.0734 2.55028 34.4606 2.68297C34.8627 2.8304 35.1903 3.02207 35.4733 3.25796C35.7562 3.49385 35.9647 3.77398 36.1136 4.09833C36.2626 4.42268 36.337 4.76178 36.337 5.13036C36.337 5.24831 36.337 5.36625 36.3221 5.45471C36.3072 5.54317 36.2924 5.63163 36.2775 5.70535C36.2477 5.79381 36.2328 5.86753 36.203 5.9265C35.8158 6.00022 35.3988 6.07393 34.952 6.11816C34.5797 6.17713 34.1479 6.22136 33.6564 6.25085C33.165 6.28034 32.6586 6.30983 32.1225 6.30983C32.1225 6.85533 32.1672 7.31237 32.2416 7.68095C32.3161 8.04954 32.4352 8.3444 32.5693 8.55081C32.7182 8.77196 32.882 8.91939 33.0756 9.00785C33.2692 9.09631 33.4926 9.14054 33.716 9.14054C33.9841 9.14054 34.2372 9.09631 34.4755 8.99311C34.7137 8.88991 34.9222 8.77196 35.0861 8.60978C35.2648 8.44761 35.3988 8.25594 35.503 8.04954C35.6073 7.84313 35.652 7.63672 35.652 7.41557H35.9796C35.9796 7.68095 35.92 7.93159 35.8009 8.18222C35.6818 8.43286 35.5031 8.65401 35.2797 8.84567C35.0563 9.03734 34.7882 9.18477 34.4755 9.30272C34.1776 9.43541 33.8351 9.49438 33.4479 9.49438ZM32.1076 5.97073C32.4055 5.97073 32.6735 5.97073 32.9118 5.95599C33.1501 5.94124 33.3437 5.9265 33.5075 5.91176C33.7011 5.89701 33.85 5.86752 33.984 5.85278C33.9989 5.76432 34.0287 5.66112 34.0436 5.55792C34.0585 5.45471 34.0734 5.35151 34.0883 5.23356C34.1032 5.11561 34.1032 4.98293 34.1032 4.85024C34.1032 4.45217 34.0734 4.11307 34.0138 3.84769C33.9542 3.58231 33.8798 3.36116 33.7755 3.18424C33.6862 3.02206 33.5819 2.88938 33.4479 2.8304C33.3139 2.77143 33.2096 2.7272 33.0905 2.7272C32.9714 2.7272 32.8522 2.77143 32.7331 2.85989C32.614 2.94835 32.5097 3.11053 32.4055 3.33167C32.3161 3.56757 32.2268 3.89192 32.1672 4.31948C32.1076 4.74703 32.1076 5.29253 32.1076 5.97073Z" fill="#40DDB6"/>
<path d="M41.9664 2.91908C41.6984 2.91908 41.4601 2.97805 41.2516 3.08126C41.0431 3.18446 40.8644 3.31715 40.7155 3.44984C40.5517 3.61202 40.4176 3.78894 40.2836 3.9806V8.89012L41.0878 9.08179V9.27345H37.335V9.08179L38.1392 8.89012V3.05177L37.335 2.86011V2.66844H38.5412C38.854 2.66844 39.1071 2.72742 39.3156 2.83062C39.5092 2.93382 39.673 3.05177 39.7922 3.16972C39.9262 3.31715 40.0305 3.47932 40.09 3.65624C40.2241 3.46458 40.3879 3.28766 40.5815 3.12549C40.7453 2.9928 40.9538 2.87485 41.207 2.7569C41.4601 2.63896 41.7431 2.59473 42.0856 2.59473C42.5621 2.59473 42.9196 2.71267 43.1578 2.91908C43.3961 3.14023 43.5003 3.44984 43.5003 3.84791C43.5003 4.14278 43.411 4.39341 43.2323 4.57033C43.0536 4.74725 42.8004 4.83571 42.5026 4.83571C42.4281 4.83571 42.3685 4.83571 42.2941 4.83571C42.2196 4.83571 42.1749 4.82097 42.1303 4.82097C42.0707 4.80622 42.0111 4.80622 41.9664 4.77674V2.91908Z" fill="#40DDB6"/>
<path d="M49.2633 4.64426C49.2633 4.3494 49.2335 4.08402 49.1739 3.86287C49.1143 3.64172 49.0399 3.4648 48.9357 3.33211C48.8463 3.18468 48.7421 3.08147 48.608 3.0225C48.4889 2.96352 48.3697 2.9193 48.2506 2.9193C48.0421 2.9193 47.8634 2.97827 47.7145 3.08147C47.5656 3.18468 47.4316 3.31737 47.3422 3.45006C47.2231 3.61223 47.1337 3.78915 47.0443 3.98082V8.89034L47.8485 9.082V9.27367H44.0957V9.082L44.8999 8.89034V3.05199L44.0957 2.86032V2.66866H45.302C45.6147 2.66866 45.8679 2.72763 46.0764 2.83084C46.27 2.93404 46.4338 3.05199 46.5529 3.16993C46.6869 3.31737 46.7912 3.47954 46.8507 3.65646C46.9699 3.43531 47.1188 3.22891 47.2975 3.05199C47.4464 2.90455 47.6549 2.77186 47.8932 2.63917C48.1315 2.50648 48.4442 2.44751 48.8016 2.44751C49.1888 2.44751 49.5463 2.50648 49.859 2.63917C50.1866 2.75712 50.4547 2.93404 50.678 3.1257C50.9014 3.33211 51.0802 3.55326 51.2142 3.81864C51.3482 4.08402 51.4078 4.3494 51.4078 4.62952V8.8756L52.2119 9.06726V9.25892H50.4696C49.6654 9.25892 49.2633 8.86085 49.2633 8.06471V4.64426Z" fill="#40DDB6"/>
<path d="M1.41504 18.5914V18.0459H11.7651V18.5914L9.59086 19.1369V30.2681H17.3944V19.1369L15.2201 18.5914V18.0459H25.5703V18.5914L23.396 19.1369V42.1365L25.5703 42.682V43.2275H15.2201V42.6672L17.3944 42.1217V31.1675H9.59086V42.1217L11.7651 42.6672V43.2127H1.41504V42.6672L3.58929 42.1217V19.1222L1.41504 18.5914Z" fill="#37393F"/>
<path d="M38.4368 24.6951C39.9409 24.6951 41.2812 24.9162 42.4726 25.3438C43.6639 25.7713 44.6617 26.4053 45.4957 27.2309C46.3297 28.0565 46.97 29.0591 47.4019 30.2386C47.8338 31.418 48.0572 32.7449 48.0572 34.234C48.0572 35.7231 47.8338 37.05 47.4019 38.2294C46.97 39.4089 46.3297 40.3967 45.4957 41.2223C44.6617 42.048 43.6491 42.6819 42.4726 43.1095C41.2812 43.537 39.9409 43.7582 38.4368 43.7582C36.9327 43.7582 35.5924 43.537 34.401 43.1095C33.2096 42.6819 32.2118 42.048 31.3779 41.2223C30.5439 40.3967 29.9035 39.3942 29.4717 38.2294C29.0398 37.05 28.8164 35.7231 28.8164 34.234C28.8164 32.7449 29.0398 31.418 29.4717 30.2386C29.9035 29.0591 30.5439 28.0713 31.3779 27.2309C32.2118 26.3906 33.2245 25.7713 34.401 25.3438C35.5924 24.9162 36.9327 24.6951 38.4368 24.6951ZM38.4368 43.021C38.8538 43.021 39.2559 42.8883 39.6729 42.6229C40.0898 42.3576 40.4472 41.9005 40.7749 41.2371C41.1025 40.5736 41.3706 39.6743 41.5791 38.539C41.7876 37.4038 41.8918 35.959 41.8918 34.2045C41.8918 32.4501 41.7876 31.0052 41.5791 29.87C41.3706 28.7347 41.1025 27.8354 40.7749 27.1719C40.4472 26.5085 40.075 26.0515 39.6729 25.7861C39.2708 25.5207 38.8538 25.388 38.4368 25.388C38.0198 25.388 37.6177 25.5207 37.2007 25.7861C36.7838 26.0515 36.4263 26.5085 36.0987 27.1719C35.7711 27.8354 35.503 28.7347 35.2945 29.87C35.086 31.0052 34.9818 32.4501 34.9818 34.2045C34.9818 35.959 35.086 37.4038 35.2945 38.539C35.503 39.6743 35.7711 40.5736 36.0987 41.2371C36.4263 41.9005 36.7987 42.3576 37.2007 42.6229C37.6177 42.8883 38.0198 43.021 38.4368 43.021Z" fill="#37393F"/>
<path d="M75.2653 30.6223C75.2653 29.7672 75.1909 29.03 75.042 28.455C74.893 27.8801 74.7143 27.3935 74.4761 27.0249C74.2378 26.6564 73.9846 26.391 73.7165 26.2141C73.4336 26.0519 73.1655 25.9634 72.8975 25.9634C72.4358 25.9634 72.0337 26.1109 71.6763 26.4057C71.3189 26.7006 71.0211 27.0397 70.753 27.3935C70.47 27.8211 70.202 28.3076 69.9935 28.8236V42.1221L72.1826 42.6676V43.2131H62.0261V42.6676L64.2004 42.1221V30.6223C64.2004 29.7672 64.1259 29.03 63.977 28.455C63.8281 27.8801 63.6494 27.3935 63.4111 27.0249C63.1728 26.6564 62.9197 26.391 62.6516 26.2141C62.3687 26.0519 62.1006 25.9634 61.8325 25.9634C61.3709 25.9634 60.9688 26.1109 60.6114 26.4057C60.254 26.7006 59.9561 27.0397 59.688 27.3935C59.3902 27.8211 59.137 28.3076 58.9286 28.8236V42.1221L61.1028 42.6676V43.2131H50.9463V42.6676L53.1206 42.1221V26.3173L50.9463 25.7718V25.2263H54.2077C55.0566 25.2263 55.7565 25.3737 56.2926 25.6538C56.8436 25.9339 57.2606 26.2583 57.5883 26.5826C57.9457 26.9955 58.2137 27.4378 58.3924 27.9095C58.7051 27.3051 59.0923 26.7743 59.554 26.2878C59.971 25.875 60.4774 25.5064 61.073 25.1673C61.6836 24.8282 62.4133 24.666 63.292 24.666C64.7365 24.666 66.0023 24.9904 67.0448 25.6243C68.1021 26.2583 68.9064 27.0839 69.4574 28.0865C69.7701 27.4672 70.1573 26.907 70.619 26.391C71.036 25.9634 71.5423 25.5654 72.138 25.2115C72.7485 24.8577 73.4783 24.666 74.3569 24.666C75.3547 24.666 76.2482 24.8282 77.0822 25.1378C77.9013 25.4474 78.6161 25.875 79.2118 26.4205C79.8075 26.966 80.2691 27.5852 80.5967 28.3076C80.9244 29.03 81.0882 29.7967 81.0882 30.6076V42.1074L83.2625 42.6529V43.1984H78.5416C76.3673 43.1984 75.2802 42.1221 75.2802 39.9696V30.6223H75.2653Z" fill="#37393F"/>
<path d="M95.2356 43.7438C92.1381 43.7438 89.7255 42.9034 88.0129 41.2079C86.3003 39.5124 85.4365 37.1977 85.4365 34.2196C85.4365 32.7305 85.6599 31.4036 86.0918 30.2241C86.5237 29.0447 87.1342 28.0569 87.9086 27.2165C88.683 26.3909 89.6213 25.7569 90.7233 25.3294C91.8253 24.9018 93.0316 24.6807 94.3272 24.6807C95.6824 24.6807 96.9036 24.8723 97.9758 25.2557C99.0481 25.639 99.9714 26.155 100.716 26.8037C101.461 27.4524 102.041 28.2191 102.443 29.0889C102.846 29.9588 103.039 30.8876 103.039 31.8754C103.039 32.2145 103.024 32.5094 102.98 32.76C102.935 33.0106 102.905 33.2318 102.846 33.4235C102.771 33.6593 102.712 33.8658 102.667 34.0279C101.595 34.2491 100.478 34.426 99.2863 34.5734C98.2737 34.7209 97.0972 34.8388 95.7717 34.9568C94.4463 35.06 93.0465 35.1189 91.6019 35.1189C91.6019 36.608 91.7062 37.8464 91.9296 38.8342C92.1529 39.822 92.4508 40.6182 92.838 41.2079C93.2252 41.7977 93.6868 42.2105 94.2229 42.4611C94.7591 42.7117 95.3399 42.8444 95.9653 42.8444C96.6951 42.8444 97.3801 42.7117 98.0205 42.4464C98.6609 42.181 99.2119 41.8271 99.6884 41.3848C100.165 40.9425 100.537 40.4413 100.82 39.881C101.103 39.3208 101.237 38.7458 101.237 38.1708H102.146C102.146 38.8932 101.982 39.5862 101.654 40.2496C101.327 40.9278 100.865 41.5175 100.254 42.0335C99.6437 42.5496 98.9289 42.9624 98.0801 43.272C97.2163 43.5816 96.2632 43.7438 95.2356 43.7438ZM91.6019 34.2196C92.421 34.2196 93.1507 34.2048 93.7762 34.1606C94.4017 34.1164 94.9378 34.0869 95.3697 34.0427C95.876 33.9984 96.3079 33.9395 96.6802 33.8657C96.7249 33.6299 96.7844 33.3645 96.8589 33.0696C96.9036 32.8042 96.9482 32.5094 96.978 32.185C97.0078 31.8607 97.0376 31.5216 97.0376 31.1677C97.0376 30.0915 96.9482 29.1921 96.7844 28.4549C96.6206 27.7178 96.3972 27.1281 96.144 26.671C95.8909 26.214 95.5931 25.8896 95.2803 25.698C94.9527 25.5063 94.625 25.4031 94.3123 25.4031C93.9995 25.4031 93.6719 25.521 93.3443 25.7422C93.0167 25.9781 92.7337 26.4056 92.4806 27.0396C92.2274 27.6736 92.0189 28.5729 91.8402 29.7229C91.6913 30.8729 91.6019 32.3767 91.6019 34.2196Z" fill="#37393F"/>
<path d="M120.865 42.8441V28.2629L107.85 18.0605V42.8441H120.865Z" fill="#6B77E5"/>
<path d="M136.964 42.8441V28.2629L124.156 18.0605V42.8441H136.964Z" fill="#6B77E5"/>
</svg>
