<svg width="18" height="17" viewBox="0 0 18 17" fill="none" xmlns="http://www.w3.org/2000/svg">
<path d="M12.1038 1.37113C13.0472 1.37384 13.9511 1.73592 14.6182 2.37828C15.2852 3.02064 15.6612 3.89108 15.6641 4.79951V11.6555C15.6612 12.564 15.2852 13.4344 14.6182 14.0768C13.9511 14.7191 13.0472 15.0812 12.1038 15.0839H4.98411C4.04074 15.0812 3.13681 14.7191 2.46975 14.0768C1.80268 13.4344 1.42668 12.564 1.42387 11.6555V4.79951C1.42668 3.89108 1.80268 3.02064 2.46975 2.37828C3.13681 1.73592 4.04074 1.37384 4.98411 1.37113H12.1038ZM12.1038 0H4.98411C2.24279 0 0 2.15972 0 4.79951V11.6555C0 14.2953 2.24279 16.455 4.98411 16.455H12.1038C14.8451 16.455 17.0879 14.2953 17.0879 11.6555V4.79951C17.0879 2.15972 14.8451 0 12.1038 0Z" fill="white"/>
<path d="M13.1723 4.79956C12.9611 4.79956 12.7546 4.73924 12.579 4.62623C12.4033 4.51323 12.2664 4.35261 12.1856 4.16468C12.1048 3.97676 12.0836 3.76998 12.1248 3.57048C12.166 3.37098 12.2677 3.18773 12.4171 3.0439C12.5665 2.90007 12.7568 2.80212 12.9639 2.76244C13.1711 2.72275 13.3859 2.74312 13.581 2.82096C13.7762 2.8988 13.943 3.03062 14.0603 3.19975C14.1777 3.36887 14.2403 3.56771 14.2403 3.77112C14.2406 3.90625 14.2132 4.04012 14.1596 4.16503C14.106 4.28993 14.0274 4.40342 13.9282 4.49898C13.8289 4.59454 13.7111 4.67028 13.5814 4.72186C13.4516 4.77344 13.3126 4.79985 13.1723 4.79956ZM8.54444 5.48494C9.10775 5.48494 9.6584 5.64579 10.1268 5.94716C10.5951 6.24852 10.9602 6.67686 11.1758 7.17801C11.3913 7.67916 11.4477 8.23061 11.3378 8.76263C11.2279 9.29465 10.9567 9.78334 10.5584 10.1669C10.16 10.5505 9.65256 10.8117 9.10008 10.9175C8.5476 11.0233 7.97494 10.969 7.45452 10.7614C6.93409 10.5538 6.48928 10.2023 6.17632 9.75129C5.86337 9.30027 5.69633 8.77001 5.69633 8.22757C5.69714 7.50042 5.99747 6.80327 6.53142 6.2891C7.06537 5.77492 7.78933 5.48572 8.54444 5.48494ZM8.54444 4.11381C7.69953 4.11381 6.87358 4.35508 6.17106 4.8071C5.46854 5.25913 4.92098 5.90161 4.59765 6.6533C4.27431 7.40499 4.18971 8.23213 4.35455 9.03013C4.51938 9.82812 4.92625 10.5611 5.5237 11.1364C6.12114 11.7118 6.88234 12.1036 7.71102 12.2623C8.53971 12.421 9.39866 12.3396 10.1793 12.0282C10.9599 11.7168 11.6271 11.1896 12.0965 10.5131C12.5659 9.83655 12.8164 9.04119 12.8164 8.22757C12.8164 7.13653 12.3663 6.09018 11.5652 5.3187C10.764 4.54722 9.67744 4.11381 8.54444 4.11381Z" fill="white"/>
</svg>
