<svg width="18" height="24" viewBox="0 0 18 24" fill="none" xmlns="http://www.w3.org/2000/svg">
<path d="M8.51493 0.75C4.22804 0.75 0.75 4.00865 0.75 8.02211C0.75 12.6402 5.92662 19.9585 7.82741 22.4862C7.90631 22.5929 8.00972 22.6797 8.12921 22.7396C8.24869 22.7994 8.38086 22.8306 8.51493 22.8306C8.649 22.8306 8.78117 22.7994 8.90066 22.7396C9.02014 22.6797 9.12355 22.5929 9.20245 22.4862C11.1032 19.9595 16.2799 12.6439 16.2799 8.02211C16.2799 4.00865 12.8018 0.75 8.51493 0.75Z" stroke="#40DDB6" stroke-width="1.5" stroke-linecap="round" stroke-linejoin="round"/>
<path d="M8.51515 12.3975C10.2305 12.3975 11.6211 11.0069 11.6211 9.29152C11.6211 7.57614 10.2305 6.18555 8.51515 6.18555C6.79977 6.18555 5.40918 7.57614 5.40918 9.29152C5.40918 11.0069 6.79977 12.3975 8.51515 12.3975Z" stroke="#40DDB6" stroke-width="1.5" stroke-linecap="round" stroke-linejoin="round"/>
</svg>
