<svg width="200" height="38" viewBox="0 0 200 38" fill="none" xmlns="http://www.w3.org/2000/svg">
<path d="M71.5 10.325L67.275 28H61.975L59.15 16.175L56.3 28H51L46.775 10.325H51.425L53.7 23.125L56.8 10.325H61.475L64.575 23.125L66.875 10.325H71.5ZM82.5945 13.9C84.1945 13.9 85.4612 14.4333 86.3945 15.5C87.3445 16.5667 87.8195 18.0333 87.8195 19.9V28H83.5445V20.4C83.5445 19.4667 83.2945 18.7417 82.7945 18.225C82.3112 17.6917 81.6612 17.425 80.8445 17.425C79.9779 17.425 79.2862 17.7 78.7695 18.25C78.2695 18.8 78.0195 19.5833 78.0195 20.6V28H73.7445V9.5H78.0195V16.6C78.4195 15.7667 79.0112 15.1083 79.7945 14.625C80.5945 14.1417 81.5279 13.9 82.5945 13.9ZM90.2391 10.125C90.2391 9.475 90.4724 8.94167 90.9391 8.525C91.4057 8.09167 92.0224 7.875 92.7891 7.875C93.5557 7.875 94.1724 8.09167 94.6391 8.525C95.1057 8.94167 95.3391 9.475 95.3391 10.125C95.3391 10.7583 95.1057 11.2917 94.6391 11.725C94.1724 12.1417 93.5557 12.35 92.7891 12.35C92.0224 12.35 91.4057 12.1417 90.9391 11.725C90.4724 11.2917 90.2391 10.7583 90.2391 10.125ZM94.9141 14.05V28H90.6391V14.05H94.9141ZM105.766 24.325V28H103.841C102.207 28 100.932 27.6 100.016 26.8C99.1156 25.9833 98.6656 24.6417 98.6656 22.775V17.65H96.7906V14.05H98.6656V10.625H102.941V14.05H105.741V17.65H102.941V22.85C102.941 23.4 103.049 23.7833 103.266 24C103.499 24.2167 103.882 24.325 104.416 24.325H105.766ZM121.418 20.65C121.418 21 121.377 21.3833 121.293 21.8H111.618C111.668 22.85 111.935 23.6083 112.418 24.075C112.902 24.525 113.518 24.75 114.268 24.75C114.902 24.75 115.427 24.5917 115.843 24.275C116.26 23.9583 116.535 23.55 116.668 23.05H121.193C121.01 24.0333 120.61 24.9167 119.993 25.7C119.377 26.4667 118.593 27.075 117.643 27.525C116.693 27.9583 115.635 28.175 114.468 28.175C113.102 28.175 111.885 27.8917 110.818 27.325C109.768 26.7417 108.943 25.9083 108.343 24.825C107.743 23.7417 107.443 22.475 107.443 21.025C107.443 19.5583 107.735 18.2917 108.318 17.225C108.918 16.1417 109.752 15.3167 110.818 14.75C111.885 14.1667 113.102 13.875 114.468 13.875C115.852 13.875 117.068 14.1583 118.118 14.725C119.168 15.2917 119.977 16.0917 120.543 17.125C121.127 18.1417 121.418 19.3167 121.418 20.65ZM117.093 20C117.11 19.0833 116.86 18.4 116.343 17.95C115.843 17.4833 115.218 17.25 114.468 17.25C113.685 17.25 113.035 17.4833 112.518 17.95C112.002 18.4167 111.71 19.1 111.643 20H117.093ZM131.722 10.15C133.972 10.15 135.83 10.7417 137.297 11.925C138.78 13.1083 139.739 14.7083 140.172 16.725H135.647C135.314 15.9083 134.797 15.2667 134.097 14.8C133.414 14.3333 132.597 14.1 131.647 14.1C130.397 14.1 129.389 14.5583 128.622 15.475C127.855 16.3917 127.472 17.6167 127.472 19.15C127.472 20.6833 127.855 21.9083 128.622 22.825C129.389 23.725 130.397 24.175 131.647 24.175C132.597 24.175 133.414 23.9417 134.097 23.475C134.797 23.0083 135.314 22.375 135.647 21.575H140.172C139.739 23.575 138.78 25.175 137.297 26.375C135.83 27.5583 133.972 28.15 131.722 28.15C130.005 28.15 128.497 27.775 127.197 27.025C125.897 26.2583 124.889 25.1917 124.172 23.825C123.472 22.4583 123.122 20.9 123.122 19.15C123.122 17.4 123.472 15.8417 124.172 14.475C124.889 13.1083 125.897 12.05 127.197 11.3C128.497 10.5333 130.005 10.15 131.722 10.15ZM149.093 13.875C150.476 13.875 151.709 14.1667 152.793 14.75C153.893 15.3167 154.751 16.1417 155.368 17.225C156.001 18.3083 156.318 19.575 156.318 21.025C156.318 22.475 156.001 23.7417 155.368 24.825C154.751 25.9083 153.893 26.7417 152.793 27.325C151.709 27.8917 150.476 28.175 149.093 28.175C147.709 28.175 146.468 27.8917 145.368 27.325C144.268 26.7417 143.401 25.9083 142.768 24.825C142.151 23.7417 141.843 22.475 141.843 21.025C141.843 19.575 142.151 18.3083 142.768 17.225C143.401 16.1417 144.268 15.3167 145.368 14.75C146.468 14.1667 147.709 13.875 149.093 13.875ZM149.093 17.575C148.276 17.575 147.584 17.875 147.018 18.475C146.468 19.0583 146.193 19.9083 146.193 21.025C146.193 22.1417 146.468 22.9917 147.018 23.575C147.584 24.1583 148.276 24.45 149.093 24.45C149.909 24.45 150.593 24.1583 151.143 23.575C151.693 22.9917 151.968 22.1417 151.968 21.025C151.968 19.9083 151.693 19.0583 151.143 18.475C150.593 17.875 149.909 17.575 149.093 17.575ZM178.288 13.875C179.354 13.875 180.271 14.1167 181.038 14.6C181.804 15.0833 182.371 15.7417 182.738 16.575V14.05H186.988V28H182.738V25.475C182.371 26.3083 181.804 26.9667 181.038 27.45C180.271 27.9333 179.354 28.175 178.288 28.175C177.138 28.175 176.104 27.8917 175.188 27.325C174.288 26.7417 173.571 25.9083 173.038 24.825C172.521 23.7417 172.263 22.475 172.263 21.025C172.263 19.5583 172.521 18.2917 173.038 17.225C173.571 16.1417 174.288 15.3167 175.188 14.75C176.104 14.1667 177.138 13.875 178.288 13.875ZM179.663 17.625C178.746 17.625 178.004 17.925 177.438 18.525C176.888 19.125 176.613 19.9583 176.613 21.025C176.613 22.0917 176.888 22.925 177.438 23.525C178.004 24.125 178.746 24.425 179.663 24.425C180.563 24.425 181.296 24.1167 181.863 23.5C182.446 22.8833 182.738 22.0583 182.738 21.025C182.738 19.975 182.446 19.15 181.863 18.55C181.296 17.9333 180.563 17.625 179.663 17.625ZM194.206 16.675C194.739 15.825 195.423 15.15 196.256 14.65C197.106 14.15 198.023 13.9 199.006 13.9V18.475H197.781C196.648 18.475 195.764 18.7167 195.131 19.2C194.514 19.6833 194.206 20.5 194.206 21.65V28H189.931V14.05H194.206V16.675Z" fill="#37393F"/>
<path d="M162.81 9.5V28H158.535V9.5H162.81ZM170.036 9.5V28H165.761V9.5H170.036Z" fill="#6B77E5"/>
<path d="M14.3756 6H8.49649L25.2608 35L28.2003 29.9152L14.3756 6Z" fill="#40DDB6"/>
<path d="M5.8791 6H0L16.5506 34.6299L19.4084 29.4051L5.8791 6Z" fill="#40DDB6"/>
<path d="M32.5307 22.6948L36.3049 16.1629H30.4274L29.5911 17.61L25.433 10.4196H39.62L42.1706 6H17L29.5945 27.7863L32.5324 22.6981L32.5307 22.6948Z" fill="#6B77E5"/>
</svg>
