<svg width="151" height="46" viewBox="0 0 151 46" fill="none" xmlns="http://www.w3.org/2000/svg">
<path d="M21.1168 9.11874L22.2337 8.88285C22.5167 8.88285 22.755 8.94182 22.9188 9.05977C23.0826 9.17772 23.172 9.29566 23.172 9.39886C23.172 9.50207 23.1422 9.66424 23.0975 9.85591C23.0528 10.0476 22.6358 12.0232 21.8614 15.7532C21.087 19.4833 20.5211 22.2698 20.1637 24.0979C21.8912 21.7685 23.9166 18.9083 26.2249 15.5026C28.5332 12.0969 29.8884 9.84116 30.2756 8.72067C30.3947 8.36683 30.5585 8.10145 30.7521 7.90979C30.9457 7.71813 31.1244 7.60018 31.2733 7.57069C31.4223 7.54121 31.6605 7.51172 31.9733 7.51172C32.286 7.51172 32.6583 7.58544 33.0902 7.71813C33.5221 7.85082 33.7455 8.07197 33.7455 8.39632C33.7455 8.98605 32.8519 10.711 31.0797 13.5417C29.3076 16.3725 27.2673 19.3801 24.9739 22.5646C22.6805 25.7492 20.7743 28.2703 19.2404 30.128C18.9724 30.4523 18.6298 30.6292 18.2426 30.6292C17.8554 30.6292 17.4385 30.5555 17.0066 30.4228C16.5747 30.2901 16.3513 30.0543 16.3513 29.7004C16.3513 28.5947 17.3342 23.2576 19.3 13.7187C17.6171 15.8712 15.5769 18.8788 13.1793 22.7268C10.6774 26.7075 9.26261 29.1844 8.93499 30.128C8.75628 30.703 8.54779 31.0421 8.30951 31.1305C8.1457 31.2042 7.96698 31.2337 7.78828 31.2337L6.58201 31.3664C6.34373 31.3664 6.13524 31.3074 5.92675 31.1747C5.73315 31.0421 5.62891 30.9094 5.62891 30.7619C5.62891 30.3639 6.19482 29.1549 7.31174 27.1498C8.42865 25.1447 9.75406 22.9627 11.2582 20.6038C12.7623 18.2449 14.326 15.9596 15.9641 13.7334C17.6023 11.5072 18.8681 10.0033 19.7617 9.25143C19.9404 9.08925 20.1488 9.01554 20.3871 9.01554L21.1168 9.11874Z" fill="#37393F"/>
<path d="M39.0168 19.1148C39.7912 19.1148 40.1784 19.3802 40.1784 19.8962C40.1784 20.1763 40.1188 20.3827 39.9848 20.5154C39.8508 20.6481 39.5678 21.0757 39.136 21.8276C38.7041 22.5648 38.2275 23.5083 37.7063 24.6731C37.1851 25.823 36.8425 26.8108 36.6936 27.6217C36.6638 27.7249 36.649 27.8576 36.649 28.0493C36.649 28.6095 36.7979 28.8749 37.1106 28.8749C37.4233 28.8749 37.7808 28.7275 38.1977 28.4473C38.6147 28.1525 38.987 27.8576 39.3147 27.5185C39.6423 27.1942 39.955 26.8551 40.2678 26.516C40.5805 26.1769 40.7592 25.9705 40.8188 25.9262C40.8784 25.882 40.9677 25.8525 41.0868 25.8525C41.2804 25.8525 41.3996 26 41.4443 26.2948C41.4889 26.5897 41.5038 26.8846 41.5038 27.2089C41.5038 27.5333 41.474 27.7397 41.4145 27.8576C41.1166 28.4326 40.4763 29.1255 39.4636 29.9364C38.4658 30.7473 37.5425 31.1454 36.7234 31.1454C35.9043 31.1454 35.2938 30.8947 34.9214 30.4082C34.5491 29.9217 34.3407 29.3614 34.3407 28.7717C34.3407 28.1672 34.4449 27.6512 34.6534 27.1942C33.8045 28.2852 32.8365 29.1993 31.7494 29.9659C30.6474 30.7178 29.7687 31.1011 29.0688 31.1011C28.3689 31.1011 27.8179 30.8947 27.3711 30.4819C26.8052 29.9659 26.5371 29.2582 26.5371 28.3441C26.5371 27.4301 26.7456 26.516 27.1626 25.5871C27.5796 24.6731 28.1157 23.8179 28.7859 23.066C29.456 22.2994 30.2006 21.6064 31.0048 20.9872C32.6876 19.6751 34.2513 19.0264 35.6809 19.0264C36.232 19.0264 36.6787 19.1148 37.0213 19.2917C37.3638 19.4687 37.5872 19.7046 37.6765 19.9699C37.9148 19.6014 38.1233 19.3802 38.302 19.277C38.436 19.1591 38.6892 19.1148 39.0168 19.1148ZM36.9915 20.7956C35.2491 20.7956 33.4471 21.7539 31.5856 23.6705C30.9303 24.3634 30.3197 25.1743 29.7538 26.1326C29.1879 27.091 28.9199 27.7397 28.9199 28.0935C28.9199 28.4473 29.0241 28.6243 29.2326 28.6243C29.5156 28.6243 30.3049 28.064 31.6154 26.9583C32.9259 25.8525 33.7896 25.0269 34.2066 24.4961C34.6832 23.9064 35.6065 22.668 36.9915 20.7956Z" fill="#37393F"/>
<path d="M50.6038 11.124L51.2292 11.2715C51.3186 11.2715 51.4079 11.3157 51.4675 11.4041C51.542 11.4926 51.5718 11.5811 51.5718 11.6548C51.5718 11.7285 51.4675 11.9496 51.2441 12.3035C51.0207 12.6573 50.7825 13.0554 50.4846 13.4977C50.1868 13.94 50.0378 14.1906 50.023 14.2349C50.8122 14.1759 51.3782 14.1464 51.7058 14.1464C52.0334 14.1464 52.2568 14.1759 52.3908 14.2201C52.51 14.2644 52.6589 14.397 52.8078 14.6034C52.9716 14.8099 53.1057 14.972 53.2397 15.0752C53.3737 15.1784 53.4333 15.3406 53.4333 15.547C53.4333 15.7534 53.2992 15.9451 53.0461 16.0778C52.7929 16.2252 52.51 16.3137 52.2121 16.3432C49.8442 16.5791 48.5486 16.697 48.3104 16.7117C47.4913 17.9649 46.3297 19.911 44.8553 22.5501C43.381 25.1891 42.5917 26.8551 42.5024 27.5186C42.4577 27.8282 42.4428 28.0641 42.4428 28.2558C42.4428 28.6538 42.6513 28.8455 43.0683 28.8455C43.4853 28.8455 43.9469 28.6833 44.4532 28.3737C44.9596 28.0494 45.4361 27.7103 45.8531 27.3417C46.9998 26.3391 47.6104 25.8231 47.6849 25.8231C47.9529 25.8231 48.087 26.2802 48.087 27.1795C48.087 27.666 47.8636 28.1083 47.4019 28.5064C46.3744 29.3763 45.5106 30.0397 44.8107 30.482C44.1107 30.9243 43.4108 31.1454 42.696 31.1454C42.5471 31.1454 42.3981 31.1307 42.2641 31.1012C41.445 30.9538 40.8493 30.6589 40.477 30.2166C40.0898 29.7743 39.9111 29.1846 39.9111 28.4474C39.9111 27.7103 40.1345 26.7962 40.5813 25.7347C41.028 24.6731 41.5791 23.5379 42.2492 22.3437C43.3512 20.3828 44.4533 18.5547 45.5404 16.8444L44.9596 16.9181C43.7831 17.0508 43.0981 17.1098 42.9045 17.1098H42.7704C42.4726 17.1098 42.1896 17.0508 41.9216 16.9329C41.6535 16.8149 41.5046 16.6675 41.5046 16.5053C41.5046 16.3284 41.5791 16.1662 41.728 16.0041C41.8769 15.8419 41.9663 15.7092 41.996 15.6207C42.0705 15.3996 42.3385 15.1489 42.8002 14.8836C43.2619 14.6182 43.6044 14.4708 43.8427 14.456C44.081 14.4413 44.3043 14.4265 44.5277 14.4118C44.7511 14.397 44.9894 14.397 45.2574 14.3823C45.5255 14.3676 45.734 14.3676 45.8829 14.3528L47.253 14.2938C48.1019 13.0259 48.6976 12.2003 49.0103 11.8464C49.3379 11.4779 49.5166 11.2862 49.5613 11.2567C49.606 11.2272 49.7102 11.1977 49.874 11.1977L50.6038 11.124Z" fill="#37393F"/>
<path d="M59.7614 25.8522C59.955 25.8522 60.0741 25.9997 60.1188 26.2945C60.1635 26.5894 60.1784 26.8843 60.1784 27.2086C60.1784 27.533 60.1486 27.7394 60.089 27.8573C59.7912 28.4176 59.1508 29.1105 58.153 29.9214C57.1553 30.7323 56.2022 31.1451 55.3086 31.1451C54.7576 31.1451 54.2513 30.9829 53.7747 30.6585C53.3131 30.3342 53.0748 29.7592 53.0748 28.9483C53.0748 28.1374 53.2982 27.3266 53.7301 26.5452C51.1984 29.6855 49.2326 31.2483 47.788 31.2483C47.2221 31.2483 46.7605 31.0419 46.4031 30.6438C46.0457 30.2457 45.8818 29.8329 45.8818 29.3906C45.8818 28.9631 45.9414 28.5208 46.0605 28.0637C46.1797 27.6067 46.3137 27.1939 46.4477 26.8253C46.5818 26.4567 46.7903 26.0144 47.0583 25.4836C47.3264 24.9529 47.5349 24.5696 47.654 24.3189C47.7732 24.0683 47.9965 23.7144 48.2944 23.2279C48.5922 22.7414 48.9645 22.0779 49.4411 21.2523C49.9176 20.4267 50.3048 19.8075 50.6176 19.4094C50.9303 19.0113 51.2281 18.8049 51.526 18.8049C51.8238 18.8049 52.077 18.9229 52.3004 19.1588C52.5238 19.3947 52.6429 19.6011 52.6429 19.7485C52.6429 19.8959 52.3004 20.5741 51.6154 21.7831C49.6049 25.3952 48.5922 27.4887 48.5922 28.0932C48.5922 28.2406 48.6518 28.3144 48.756 28.3144C49.2475 28.3144 50.4687 27.2676 52.4046 25.174C54.3406 23.0805 55.4724 21.7388 55.7852 21.1491C56.0979 20.5594 56.3809 20.0581 56.6787 19.66C56.9617 19.262 57.185 19.0113 57.334 18.9229C57.7658 18.6427 58.3318 18.4953 59.0317 18.4658C59.1508 18.4658 59.2253 18.4658 59.2849 18.4806C59.3444 18.4953 59.4189 18.5838 59.4933 18.7312C59.5678 18.8786 59.6125 19.0113 59.6125 19.1145C59.5231 19.3946 59.121 20.1466 58.3913 21.3703C57.6765 22.594 57.2744 23.2869 57.1999 23.4343C55.9937 25.8965 55.398 27.5035 55.398 28.2406C55.398 28.6682 55.5618 28.8746 55.8894 28.8746C56.4851 28.8009 57.1999 28.3291 58.0339 27.474C58.3466 27.1644 58.6445 26.84 58.9423 26.5157C59.2402 26.1913 59.4338 25.9997 59.4933 25.9554C59.5678 25.8817 59.6572 25.8522 59.7614 25.8522Z" fill="#37393F"/>
<path d="M64.1849 22.3584C66.5825 19.6604 68.6377 18.304 70.3205 18.304C70.7375 18.304 71.08 18.4219 71.3481 18.6726C71.6161 18.9232 71.7502 19.2328 71.7502 19.6309C71.7502 20.029 71.4672 20.6777 70.9013 21.6065C70.3354 22.5206 69.8142 23.302 69.3376 23.9359C69.0845 24.2603 68.8015 24.4225 68.4739 24.4225C68.1611 24.4225 67.908 24.3045 67.7293 24.0686C67.5505 23.8327 67.4612 23.5674 67.4612 23.2577C67.4612 22.5648 67.8335 21.7687 68.593 20.8988L68.5632 20.8693C68.2207 20.8988 67.4016 21.5623 66.0613 22.8302C64.7359 24.1129 63.6041 25.2628 62.6659 26.2654C61.7426 27.2827 60.7299 28.5064 59.6279 29.966C59.3151 30.3935 59.0471 30.6147 58.8237 30.6147C58.6003 30.6147 58.3174 30.5409 57.9599 30.4083C57.6025 30.2756 57.3791 30.1724 57.3047 30.1134C57.2302 30.0544 57.1855 29.9512 57.1855 29.8038C57.1855 29.6711 57.2302 29.4942 57.3047 29.3173C57.3791 29.1256 57.543 28.8602 57.7515 28.5211C57.96 28.182 58.3025 27.6218 58.7492 26.8551C59.196 26.0885 59.881 24.9237 60.8193 23.3757C61.7575 21.8277 62.3085 20.8841 62.5021 20.5597C62.8893 19.8963 63.202 19.4097 63.4552 19.1149C63.9168 18.5399 64.6912 18.2598 65.7784 18.2598C66.0167 18.2598 66.1507 18.4072 66.1507 18.7168C66.1507 19.1886 65.7039 20.0879 64.8253 21.3853L64.1849 22.3584Z" fill="#37393F"/>
<path d="M80.6116 19.292C80.6116 19.9555 80.3435 20.5452 79.7925 21.0465C79.2415 21.5477 78.6309 21.7984 77.931 21.7984C77.7076 21.7984 77.5587 21.7394 77.4842 21.6362C77.4097 21.533 77.3799 21.3856 77.3799 21.2234C77.3799 21.0612 77.3948 20.8843 77.4395 20.7221C77.0672 20.8401 76.6651 21.0317 76.2183 21.2824C75.7716 21.533 75.2206 21.9016 74.5653 22.4029C73.91 22.9041 73.5824 23.258 73.5824 23.5086C73.5824 23.5823 73.7016 23.6266 73.9398 23.6266C74.1781 23.6266 74.5504 23.5381 75.0419 23.3759C75.5333 23.2137 75.8907 23.1253 76.0843 23.1253C76.2779 23.1253 76.4119 23.14 76.4715 23.1548C76.6055 23.2285 76.7396 23.3759 76.9034 23.6118C77.0523 23.8477 77.1268 24.0394 77.1268 24.1721C77.1268 24.3047 76.9928 24.4817 76.7247 24.7028C76.4566 24.924 76.1588 25.0861 75.8312 25.2041C75.4886 25.322 75.2653 25.4105 75.161 25.4695C73.0165 26.6637 71.9443 27.4746 71.9443 27.9169C71.9443 28.6983 72.6144 29.0963 73.9696 29.0963C74.8334 29.0963 75.712 28.8309 76.5758 28.2854C77.3204 27.8284 77.9905 27.3566 78.5862 26.8701C79.1819 26.3983 79.5542 26.1034 79.718 25.9855C79.8818 25.8675 80.001 25.8233 80.0755 25.8233C80.3435 25.8233 80.4775 26.1182 80.4775 26.7079C80.4775 27.2976 80.4478 27.681 80.3733 27.8579C80.2988 28.0495 80.1052 28.2707 79.7627 28.5508C77.5884 30.3053 75.5184 31.1899 73.5824 31.1899C72.54 31.1899 71.7209 31.0424 71.0954 30.7623C69.9487 30.2463 69.3828 29.4649 69.3828 28.4034C69.3828 27.0175 70.3508 25.956 72.3017 25.2483C71.9145 25.0714 71.6613 24.865 71.5571 24.5849C71.438 24.3195 71.3933 23.8919 71.3933 23.3022C71.3933 22.7125 71.6762 22.0933 72.2272 21.4298C72.7782 20.7664 73.4633 20.2208 74.2675 19.808C76.0545 18.8497 77.6629 18.3779 79.0628 18.3779C79.4053 18.3779 79.7329 18.4516 80.0903 18.6138C80.4478 18.776 80.6116 18.9972 80.6116 19.292Z" fill="#37393F"/>
<path d="M115.37 9.03033H115.564C115.623 9.03033 115.668 9.03033 115.683 9.04507C115.698 9.05981 115.713 9.05981 115.742 9.07456C115.772 9.07456 115.787 9.0893 115.817 9.11878C115.861 9.16301 115.936 9.20724 116.025 9.25147C116.144 9.33993 116.204 9.44314 116.204 9.56109C116.204 9.67903 116.085 9.92967 115.847 10.313C115.608 10.6963 114.998 11.6251 114 13.129C111.721 16.5789 109.681 19.7929 107.879 22.7416C104.767 27.8723 103.188 30.4524 103.158 30.4819C103.129 30.5113 103.114 30.5408 103.099 30.5703C103.084 30.6293 103.054 30.6588 102.98 30.6588L102.771 30.6145L102.354 30.7177L102.116 30.6735L101.863 30.7177H101.773L100.925 30.8357C100.418 30.8357 100.165 30.6588 100.165 30.3197C100.165 30.1722 100.21 29.9953 100.299 29.7889C100.612 29.0518 102.205 26.3832 105.065 21.7538C103.188 21.798 101.327 21.8275 99.4949 21.8275L96.2186 21.8128C95.6824 22.6679 94.9378 23.8768 93.9996 25.4544C91.9743 28.8896 90.902 30.6145 90.768 30.644C90.634 30.6735 90.5297 30.703 90.4404 30.703C90.351 30.703 90.2766 30.6588 90.217 30.5556C90.1425 30.4671 90.0979 30.4081 90.0681 30.4081C90.0383 30.4081 89.9936 30.4229 89.9043 30.4671C89.8298 30.5113 89.7107 30.5261 89.5469 30.5261L89.1894 30.5113L89.0554 30.4229C89.0405 30.4229 89.0256 30.4376 89.0107 30.4671C88.9958 30.4966 88.9512 30.5113 88.8916 30.5113C88.4597 30.5113 88.2363 30.3344 88.2363 29.9658C88.2363 29.7299 88.3257 29.4056 88.4895 29.0075C88.6682 28.6095 88.8916 28.1819 89.1745 27.7248C89.4575 27.2678 90.1723 26.1621 91.3488 24.4371C92.5104 22.7121 93.0912 21.8423 93.0912 21.8275C92.8976 21.8128 92.6742 21.8128 92.421 21.798C91.8998 21.798 91.5424 21.7833 91.319 21.7391C90.7382 21.6359 90.3361 21.1641 90.1276 20.3237C90.0085 19.9109 89.9638 19.6455 89.9787 19.5128C89.9787 19.2474 90.0979 19.1 90.3361 19.1L90.7382 19.2032C90.9467 19.218 91.4233 19.2327 92.1977 19.2769C92.9721 19.3212 93.5231 19.3359 93.8656 19.3359L94.7293 19.3064C96.0548 17.2571 97.6333 14.9277 99.48 12.3328C98.1397 13.4238 96.6504 13.9693 95.0123 13.9693C94.2379 13.9693 93.5677 13.7924 93.0167 13.4238C92.4508 13.0553 92.1828 12.5835 92.1828 12.0232C92.1828 11.463 92.3913 11.0207 92.8231 10.6816C93.255 10.3572 93.6571 10.195 94.0443 10.195C94.4315 10.195 94.6251 10.254 94.6251 10.372C94.6251 10.4162 94.5655 10.4604 94.4613 10.5047C94.357 10.5636 94.2975 10.6079 94.2975 10.6521C94.2975 10.8143 94.4762 10.9617 94.8336 11.0796C95.191 11.1976 95.5931 11.2713 96.0398 11.2713C96.4866 11.2713 97.0227 11.1386 97.678 10.888C98.3333 10.6373 99.0034 10.2983 99.7033 9.90018C100.686 9.33993 101.461 8.86815 102.027 8.49956C102.354 8.33739 102.652 8.26367 102.95 8.26367C103.248 8.26367 103.441 8.29316 103.575 8.36687C103.709 8.42585 103.799 8.49957 103.858 8.55854C103.918 8.61751 103.992 8.70597 104.052 8.80918C104.126 8.91238 104.186 9.00084 104.26 9.04507C104.32 9.10404 104.365 9.16301 104.365 9.23673C104.365 9.31045 104.32 9.41365 104.245 9.57583C104.171 9.72326 103.784 10.3425 103.084 11.4187C102.384 12.495 101.476 13.8661 100.373 15.5321C99.2715 17.1981 98.4673 18.4218 97.961 19.218C100.686 19.218 103.62 19.1737 106.777 19.0705C110.619 13.07 112.645 9.92967 112.853 9.6348C113.062 9.33993 113.255 9.14827 113.434 9.05981C113.613 8.97135 113.821 8.92712 114.074 8.92712L115.37 9.03033Z" fill="#37393F"/>
<path d="M120.344 19.0854C120.657 19.0854 120.97 19.2181 121.282 19.4982C121.61 19.7784 121.759 20.1912 121.759 20.7514C121.759 21.3117 121.565 22.0341 121.163 22.9334C120.761 23.818 120.225 24.7321 119.525 25.6609C118.84 26.575 118.066 27.4449 117.247 28.2558C116.413 29.0666 115.519 29.7301 114.566 30.2461C113.598 30.7621 112.734 31.0275 111.945 31.0275C111.156 31.0275 110.53 30.7769 110.054 30.2903C109.577 29.8038 109.339 29.1256 109.339 28.2558C109.339 27.3859 109.562 26.4128 109.994 25.3661C110.426 24.3046 110.977 23.3757 111.662 22.5648C112.347 21.754 113.077 21.0315 113.881 20.3828C115.534 19.0559 116.993 18.4072 118.244 18.4072C118.81 18.4072 119.227 18.5399 119.51 18.82C119.615 18.9085 119.659 18.997 119.659 19.0559V19.1444C119.823 19.0854 120.046 19.0854 120.344 19.0854ZM118.81 21.0905H118.706C118.349 21.0905 118.17 20.8399 118.17 20.3239C117.425 20.5598 116.651 20.9873 115.832 21.5918C115.013 22.1963 114.283 22.9187 113.643 23.7443C112.332 25.3956 111.677 26.7962 111.662 27.9314C111.662 28.4917 111.871 28.7718 112.288 28.7718C112.705 28.7718 113.33 28.4917 114.149 27.9609C114.968 27.4301 115.787 26.6487 116.606 25.6315C117.41 24.6289 118.021 23.7443 118.423 23.0071C118.825 22.27 119.034 21.7687 119.034 21.4886C119.019 21.2232 118.944 21.0905 118.81 21.0905Z" fill="#37393F"/>
<path d="M121.431 30.6881L120.687 30.6587H120.418C120.314 30.6292 120.21 30.5702 120.091 30.4817C119.972 30.3933 119.882 30.3196 119.823 30.2901C119.763 30.2606 119.733 30.1721 119.733 30.0689C119.733 29.9657 119.778 29.7741 119.853 29.5234C121.833 25.2036 123.754 21.7389 125.616 19.1589C125.824 18.8787 126.152 18.6576 126.599 18.5102C127.045 18.3627 127.492 18.289 127.924 18.289C128.177 18.289 128.311 18.4807 128.311 18.8787C128.311 18.9967 128.267 19.1441 128.192 19.321C128.118 19.5127 127.909 19.8076 127.582 20.2351C127.254 20.6627 126.867 21.1492 126.42 21.68C125.973 22.2107 125.72 22.5351 125.661 22.6235C127.06 21.1934 128.311 20.1319 129.443 19.4242C130.575 18.7313 131.379 18.3775 131.885 18.3775C132.392 18.3775 132.779 18.5249 133.047 18.805C133.315 19.0851 133.449 19.3948 133.449 19.7191C133.449 20.0435 133.419 20.3236 133.375 20.53C133.33 20.7511 133.241 20.9723 133.122 21.2082C133.002 21.4441 132.898 21.6505 132.809 21.8127C132.719 21.9748 132.571 22.196 132.377 22.4614C132.168 22.7267 132.034 22.9184 131.96 23.0216C131.885 23.1248 131.722 23.3165 131.483 23.5966C131.245 23.8767 131.111 24.0389 131.096 24.0684C131.379 23.7883 131.781 23.3755 132.288 22.8152C132.794 22.255 133.226 21.7979 133.583 21.4293C133.941 21.0608 134.372 20.6332 134.909 20.1614C135.445 19.6896 135.936 19.3063 136.383 19.0262C137.485 18.348 138.602 17.9941 139.734 17.9941C140.121 17.9941 140.448 18.1121 140.717 18.3627C140.985 18.6134 141.119 18.8935 141.119 19.2326C141.119 19.5717 140.702 20.3826 139.883 21.6505C139.064 22.9184 138.23 24.2011 137.411 25.4837C136.591 26.7664 136.174 27.5773 136.174 27.9164C136.174 28.3734 136.264 28.6536 136.428 28.742C136.606 28.8305 136.815 28.86 137.053 28.8452C137.291 28.8305 137.649 28.6683 138.081 28.3734C138.527 28.0786 138.915 27.7837 139.257 27.4593C139.823 26.9581 140.329 26.4715 140.821 25.9998C140.925 25.9113 141.029 25.8671 141.163 25.8671C141.357 25.8671 141.476 26.0145 141.521 26.3094C141.565 26.6042 141.58 26.8991 141.58 27.2235C141.58 27.5478 141.551 27.7542 141.491 27.8722C141.193 28.4324 140.538 29.1253 139.54 29.951C138.527 30.7619 137.559 31.1747 136.636 31.1747C136.517 31.1747 136.442 31.1747 136.398 31.1599C135.355 31.0567 134.626 30.7766 134.224 30.3048C133.821 29.833 133.628 29.2728 133.628 28.6388C133.628 28.0049 133.851 27.2087 134.298 26.2946C134.745 25.3805 135.221 24.5402 135.757 23.803C136.294 23.0658 136.77 22.3876 137.217 21.7832C137.664 21.1787 137.887 20.8543 137.887 20.8101C137.887 20.7659 137.842 20.7364 137.768 20.7364C137.455 20.7364 136.755 21.2377 135.653 22.255C133.792 23.9799 132.183 25.6459 130.828 27.2382C130.471 27.6658 129.622 28.7273 128.296 30.4522C128.148 30.6587 127.894 30.7619 127.567 30.7619C127.239 30.7619 126.897 30.7029 126.539 30.5702C126.182 30.4375 126.003 30.2753 126.003 30.0837C126.003 29.9805 126.807 28.5651 128.43 25.8376C130.054 23.1101 130.858 21.621 130.858 21.3851C130.858 21.1345 130.709 21.0165 130.411 21.0165C130.113 21.0165 129.488 21.4588 128.55 22.3434C125.973 24.7761 123.978 27.2087 122.563 29.6119C122.474 29.7593 122.295 29.9805 122.027 30.2753C121.759 30.5702 121.52 30.6881 121.431 30.6881Z" fill="#37393F"/>
<path d="M150.962 19.292C150.962 19.9555 150.694 20.5452 150.143 21.0465C149.592 21.5477 148.981 21.7984 148.282 21.7984C148.058 21.7984 147.909 21.7394 147.835 21.6362C147.76 21.533 147.731 21.3856 147.731 21.2234C147.731 21.0612 147.745 20.8843 147.79 20.7221C147.418 20.8401 147.016 21.0317 146.569 21.2824C146.122 21.533 145.571 21.9016 144.916 22.4029C144.261 22.9041 143.933 23.258 143.933 23.5086C143.933 23.5823 144.052 23.6266 144.29 23.6266C144.529 23.6266 144.901 23.5381 145.392 23.3759C145.884 23.2137 146.241 23.1253 146.435 23.1253C146.629 23.1253 146.763 23.14 146.822 23.1548C146.956 23.2285 147.09 23.3759 147.254 23.6118C147.403 23.8477 147.477 24.0394 147.477 24.1721C147.477 24.3047 147.343 24.4817 147.075 24.7028C146.807 24.924 146.509 25.0861 146.182 25.2041C145.839 25.322 145.616 25.4105 145.512 25.4695C143.367 26.6637 142.295 27.4746 142.295 27.9169C142.295 28.6983 142.965 29.0963 144.32 29.0963C145.184 29.0963 146.063 28.8309 146.926 28.2854C147.671 27.8284 148.341 27.3566 148.937 26.8701C149.532 26.3983 149.905 26.1034 150.069 25.9855C150.232 25.8675 150.352 25.8233 150.426 25.8233C150.694 25.8233 150.828 26.1182 150.828 26.7079C150.828 27.2976 150.798 27.681 150.724 27.8579C150.649 28.0495 150.456 28.2707 150.113 28.5508C147.939 30.3053 145.869 31.1899 143.933 31.1899C142.891 31.1899 142.071 31.0424 141.446 30.7623C140.299 30.2463 139.733 29.4649 139.733 28.4034C139.733 27.0175 140.701 25.956 142.652 25.2483C142.265 25.0714 142.012 24.865 141.908 24.5849C141.789 24.3195 141.744 23.8919 141.744 23.3022C141.744 22.7125 142.027 22.0933 142.578 21.4298C143.129 20.7664 143.814 20.2208 144.618 19.808C146.405 18.8497 148.013 18.3779 149.413 18.3779C149.756 18.3779 150.084 18.4516 150.441 18.6138C150.798 18.776 150.962 18.9972 150.962 19.292Z" fill="#37393F"/>
<path d="M0 34.7719C3.91666 36.3937 7.90777 37.6469 11.9734 38.6052C16.0091 39.6077 20.1194 40.3154 24.2297 40.7577C26.2848 41.0378 28.3548 41.0673 30.3951 41.259C32.4651 41.2737 34.5202 41.4359 36.5753 41.3179L39.658 41.2442C40.6856 41.2295 41.7132 41.0968 42.7407 41.0378C43.7683 40.9494 44.7958 40.9051 45.8085 40.7724L48.8614 40.3449C52.9568 39.9026 56.933 38.959 60.8944 37.8238C64.9004 36.7328 68.683 35.2879 72.689 33.7841C76.7844 32.295 81.2223 31.322 85.7197 31.7938C87.9387 32.0739 90.1725 32.7816 91.9894 34.079C93.8211 35.3616 95.1316 37.1898 95.9656 39.1065C94.7146 37.3962 93.151 35.9956 91.349 35.1258C89.547 34.2559 87.5664 33.9021 85.6006 33.961C81.6244 34.02 77.7077 35.3322 74.0293 36.9834C70.2914 38.8116 66.2407 40.4628 62.1602 41.834C58.0499 43.1461 53.8056 44.1929 49.5018 44.7237C40.9388 45.8441 32.1672 45.8589 23.7084 44.1634C19.4642 43.3968 15.3241 42.2025 11.3181 40.684C7.34186 39.1064 3.455 37.2635 0 34.7719Z" fill="#40DDB6"/>
<path d="M142.414 10.2247C139.093 8.82407 135.712 7.73307 132.287 6.87795C128.877 5.97861 125.422 5.34465 121.952 4.90235C120.224 4.63697 118.467 4.578 116.74 4.37159C114.997 4.32736 113.27 4.15044 111.527 4.22416C110.664 4.2389 109.785 4.2389 108.921 4.22416C108.058 4.22416 107.179 4.31262 106.315 4.3421C105.451 4.40108 104.573 4.41582 103.709 4.50428L101.118 4.81389C97.6479 5.09401 94.2822 5.80169 90.9166 6.67155C87.5063 7.48243 84.2746 8.63241 80.8345 9.78239C77.3051 10.9471 73.4777 11.6548 69.6356 11.124C67.7442 10.8144 65.838 10.151 64.3339 8.97151C62.8 7.80678 61.7576 6.2145 61.1172 4.54851C62.1745 6.0081 63.4851 7.20231 64.9892 7.93947C66.4933 8.67664 68.1463 8.98625 69.7994 8.97151C73.1352 8.97151 76.4413 7.90999 79.5687 6.58309C82.7556 5.07927 86.2553 3.75237 89.7401 2.66137C93.2546 1.61459 96.9181 0.818452 100.582 0.435126C107.894 -0.331527 115.37 -0.154607 122.533 1.52613C126.122 2.27804 129.621 3.42802 132.972 4.84338C136.338 6.28822 139.584 7.96896 142.414 10.2247Z" fill="#6B77E5"/>
</svg>
