<svg width="104" height="99" viewBox="0 0 104 99" fill="none" xmlns="http://www.w3.org/2000/svg">
<path d="M88.3715 83.0231C88.5408 83.0142 88.7013 82.9072 88.7637 82.7468C90.8941 77.55 94.0852 62.04 94.1031 57.9486C94.1833 40.2814 92.4629 35.7621 86.7848 20.8048L85.8132 18.2465C85.7241 18.0148 85.4656 17.89 85.2338 17.9791C85.0021 18.0682 84.8773 18.3267 84.9664 18.5585L85.938 21.1168C91.5715 35.9582 93.2741 40.4419 93.1938 57.9397C93.176 61.9687 90.0205 77.2648 87.9169 82.3991C87.8188 82.6309 87.9347 82.8983 88.1665 82.9874C88.2378 83.0142 88.3002 83.0231 88.3715 83.0231Z" fill="#40DDB6"/>
<path d="M93.185 62.8957C93.2296 62.8957 93.2742 62.8868 93.3187 62.869C93.5505 62.7799 93.6753 62.5214 93.5862 62.2896C92.6235 59.6689 90.2881 57.289 88.7371 55.7023L88.4072 55.3636C87.5515 54.49 85.5548 52.1457 84.9754 51.085C84.708 50.5947 84.4495 50.1401 84.1999 49.7033C82.4885 46.6815 81.4634 44.8542 81.0444 39.8625C81.0266 39.6129 80.8127 39.4168 80.5542 39.4524C80.3046 39.4703 80.1174 39.6931 80.1441 39.9427C80.5809 45.1305 81.7041 47.1272 83.4155 50.149C83.6562 50.5769 83.9147 51.0315 84.1821 51.5217C84.815 52.6627 86.8562 55.0694 87.7654 55.9965L88.0953 56.3352C89.6819 57.9486 91.848 60.1592 92.7393 62.5927C92.8107 62.7888 92.9978 62.9047 93.185 62.8957Z" fill="#40DDB6"/>
<path d="M93.5324 45.4693C93.684 45.4604 93.8355 45.3712 93.9068 45.2197C95.2439 42.5901 96.572 39.9071 97.8378 37.2507C99.2105 34.3627 100.494 31.2963 99.7454 28.2567C99.683 28.016 99.4423 27.8645 99.2016 27.9269C98.9609 27.9893 98.8094 28.23 98.8718 28.4706C99.5493 31.225 98.3281 34.122 97.0266 36.8585C95.7609 39.5059 94.4416 42.1801 93.1046 44.8007C92.9887 45.0236 93.0778 45.2999 93.3007 45.4069C93.3809 45.4604 93.4522 45.4693 93.5324 45.4693Z" fill="#40DDB6"/>
<path d="M87.2144 17.6287C89.3548 15.2171 89.135 11.5269 86.7234 9.38648C84.3117 7.24603 80.6215 7.46586 78.4811 9.87749C76.3406 12.2891 76.5605 15.9793 78.9721 18.1198C81.3837 20.2602 85.0739 20.0404 87.2144 17.6287Z" fill="#40DDB6"/>
<path d="M93.8533 24.9142C93.996 27.3655 96.0996 29.2463 98.5509 29.1037C101.002 28.961 102.883 26.8574 102.74 24.4061C102.598 21.9548 100.494 20.074 98.0428 20.2166C95.5826 20.3592 93.7107 22.4629 93.8533 24.9142Z" fill="#40DDB6"/>
<path d="M75.9275 36.4669C76.0701 38.9182 78.1738 40.799 80.634 40.6564C83.0853 40.5138 84.9661 38.4101 84.8235 35.9588C84.6809 33.5075 82.5772 31.6267 80.1259 31.7693C77.6657 31.903 75.7849 34.0067 75.9275 36.4669Z" fill="#40DDB6"/>
<path d="M81.3649 33.0076C81.5788 32.9987 81.7571 32.8382 81.7838 32.6243C81.9086 31.7953 82.3365 30.1284 82.693 29.3262C82.7911 29.0944 82.693 28.827 82.4613 28.729C82.2295 28.6309 81.9621 28.729 81.864 28.9607C81.4718 29.8521 81.0172 31.5903 80.8924 32.4995C80.8568 32.7491 81.0261 32.9809 81.2757 33.0165C81.3025 33.0076 81.3381 33.0165 81.3649 33.0076Z" fill="#40DDB6"/>
<path d="M79.0392 33.3732C79.1818 33.3643 79.3244 33.2841 79.4046 33.1593C79.5294 32.9454 79.467 32.669 79.2531 32.5353C79.2264 32.5086 79.0303 32.2857 78.8787 31.0378C78.8431 30.6991 78.8787 30.3871 78.9233 30.0573C78.959 29.7631 79.0035 29.469 78.9946 29.1303C78.9857 28.8807 78.7807 28.6846 78.5311 28.6846C78.3082 28.6846 78.0854 28.8985 78.0854 29.1481C78.0943 29.4333 78.0587 29.6918 78.023 29.9414C77.9784 30.3158 77.925 30.6991 77.9784 31.1448C78.13 32.4105 78.3706 33.0612 78.7807 33.3108C78.8609 33.3554 78.95 33.3732 79.0392 33.3732Z" fill="#40DDB6"/>
<path d="M78.1742 34.1583C78.2455 34.1583 78.3257 34.1316 78.3881 34.087C78.602 33.9533 78.6644 33.677 78.5307 33.4631C77.47 31.7694 76.5875 30.7176 75.8388 30.2363C75.6248 30.1026 75.3485 30.165 75.2148 30.3789C75.0811 30.5928 75.1435 30.8691 75.3574 31.0029C75.9814 31.404 76.7925 32.3934 77.7641 33.9444C77.8533 34.087 78.0137 34.1673 78.1742 34.1583Z" fill="#40DDB6"/>
<path d="M99.6117 21.839C99.8078 21.8301 99.9682 21.6785 100.004 21.4824C100.111 20.7158 100.512 19.1827 100.842 18.4339C100.931 18.22 100.842 17.9793 100.628 17.8812C100.414 17.7921 100.173 17.8812 100.075 18.0952C99.7186 18.9152 99.2997 20.5197 99.1749 21.3576C99.1392 21.5894 99.2997 21.7944 99.5314 21.8301C99.5493 21.839 99.576 21.839 99.6117 21.839Z" fill="#40DDB6"/>
<path d="M98.3725 22.1151C98.5062 22.1062 98.631 22.0349 98.7023 21.9101C98.8182 21.714 98.7558 21.4555 98.5596 21.3396C98.5329 21.3129 98.3546 21.1079 98.212 19.958C98.1674 19.5658 98.2031 19.2181 98.2477 18.7368C98.2744 18.505 98.2922 18.2465 98.319 17.9346C98.3368 17.7028 98.1585 17.5067 97.9268 17.4889C97.695 17.4799 97.4989 17.6493 97.4811 17.8811C97.4633 18.1752 97.4365 18.4337 97.4098 18.6566C97.3563 19.1647 97.3206 19.5747 97.3741 20.056C97.5078 21.2237 97.7307 21.821 98.114 22.0527C98.2031 22.1062 98.2922 22.124 98.3725 22.1151Z" fill="#40DDB6"/>
<path d="M97.5699 22.8374C97.6412 22.8374 97.7036 22.8106 97.766 22.775C97.9621 22.6502 98.0245 22.3917 97.8997 22.1956C96.9281 20.6357 96.1169 19.6641 95.4217 19.2273C95.2256 19.1025 94.9671 19.1649 94.8423 19.3521C94.7175 19.5482 94.7799 19.8067 94.9671 19.9315C95.5465 20.2969 96.2952 21.2151 97.1866 22.6413C97.2757 22.775 97.4184 22.8463 97.5699 22.8374Z" fill="#40DDB6"/>
<path d="M80.1349 9.5378C80.2151 9.52888 80.2864 9.51105 80.3577 9.46649C80.5627 9.32387 80.6251 9.04754 80.4825 8.84252C80.0101 8.13833 79.2256 6.62298 78.9493 5.78509C78.8691 5.54441 78.6106 5.41962 78.3788 5.49984C78.1382 5.58007 78.0134 5.83857 78.0936 6.07033C78.3967 6.98845 79.2256 8.58402 79.7337 9.35061C79.8229 9.4754 79.9744 9.54671 80.1349 9.5378Z" fill="#40DDB6"/>
<path d="M79.4485 10.4115C79.4841 10.4115 79.5198 10.4026 79.5555 10.3937C79.805 10.3491 79.9655 10.1085 79.912 9.86779C79.8674 9.6182 79.6179 9.45775 79.3861 9.51123C79.3415 9.51123 79.0474 9.47558 78.1025 8.64659C77.844 8.42375 77.6657 8.16525 77.4785 7.88892C77.3092 7.64825 77.1398 7.39866 76.9081 7.14908C76.7387 6.96189 76.4535 6.95297 76.2663 7.13125C76.0791 7.30061 76.0702 7.58585 76.2484 7.77304C76.4445 7.97806 76.5872 8.19199 76.7387 8.40592C76.9526 8.71791 77.1755 9.0388 77.5142 9.33296C78.3967 10.0995 78.9939 10.4383 79.4485 10.4115Z" fill="#40DDB6"/>
<path d="M79.3775 11.5697C79.5647 11.5608 79.734 11.436 79.7875 11.2399C79.8588 10.9992 79.7162 10.7496 79.4755 10.6783C77.5591 10.1346 76.1953 9.93847 75.3217 10.0811C75.0721 10.1257 74.9117 10.3574 74.9473 10.607C74.9919 10.8566 75.2237 11.026 75.4732 10.9814C76.2042 10.8566 77.4699 11.0527 79.2349 11.5519C79.2794 11.5608 79.324 11.5697 79.3775 11.5697Z" fill="#40DDB6"/>
<path d="M91.152 70.7934C90.1001 70.7577 88.2104 70.0981 87.5241 69.1176C87.3814 68.9126 86.6594 67.8429 86.5079 67.0407C86.3385 66.1137 86.3385 65.3381 86.5079 64.2596C86.7486 62.7621 86.802 62.6997 87.0605 62.6016C87.221 62.5392 87.4171 62.4679 88.8166 63.4395C90.4834 64.5894 92.0523 67.3972 91.8027 70.0981C91.7938 70.2318 91.7225 70.3477 91.6244 70.419C91.5887 70.6329 91.4194 70.7934 91.2055 70.8023C91.1787 70.7934 91.1698 70.7934 91.152 70.7934ZM87.3993 64.4022C87.2388 65.3827 87.2388 66.0513 87.3903 66.8713C87.4706 67.3259 87.8895 68.0658 88.2639 68.6006C88.6739 69.18 89.9843 69.7416 90.9024 69.8664C91.0539 67.5755 89.6901 65.151 88.2996 64.1883C88.2015 64.117 87.8271 63.8852 87.5241 63.698C87.4795 63.9476 87.426 64.2418 87.3993 64.4022Z" fill="#40DDB6"/>
<path d="M81.9358 54.2228C81.713 54.2049 80.572 54.0712 79.9302 53.7058C79.2082 53.2868 78.6734 52.8322 78.0494 52.0924C77.2026 51.0851 77.158 51.0138 77.2472 50.7553C77.3006 50.6127 77.363 50.4433 78.8338 50.0511C80.5898 49.5876 83.3977 50.1581 85.0735 51.8962C85.1537 51.9854 85.1893 52.0924 85.1893 52.1993C85.3231 52.3509 85.3231 52.5826 85.1804 52.7341C84.601 53.367 83.2729 54.1693 82.23 54.2228C82.1319 54.2317 82.0339 54.2317 81.9358 54.2228ZM79.0477 50.8355C78.9408 50.8622 78.5664 50.9781 78.2633 51.0762C78.3792 51.2188 78.5218 51.3882 78.6734 51.5664C79.2438 52.2439 79.6984 52.6272 80.3492 53.0016C80.7057 53.2066 81.4455 53.3581 82.0249 53.4116C82.6578 53.4829 83.7899 52.9124 84.4138 52.3598C82.9431 50.9336 80.5096 50.4522 79.0477 50.8355Z" fill="#40DDB6"/>
<path d="M84.6546 51.9674C84.5565 51.9228 84.4763 51.8337 84.4496 51.7178C83.7899 49.3913 84.7259 46.6815 86.0095 45.3979C87.0791 44.3193 87.2752 44.355 87.4179 44.3817C87.6675 44.4263 87.7209 44.4798 88.1666 45.7455C88.4875 46.6637 88.6123 47.35 88.6123 48.1879C88.6123 48.9189 88.1399 49.9707 88.0507 50.1757C87.6051 51.1473 86.0541 52.0298 85.1359 52.2259C85.1181 52.2348 85.0914 52.2348 85.0735 52.2348C84.8774 52.2526 84.7081 52.1367 84.6546 51.9674ZM86.5711 45.9684C85.5014 47.038 84.6902 49.3824 85.1894 51.3701C85.9827 51.1116 87.0435 50.4075 87.302 49.837C87.5427 49.3111 87.7922 48.598 87.7922 48.1879C87.7922 47.4392 87.6853 46.8508 87.3911 46.0219C87.3287 45.8436 87.2485 45.6207 87.1683 45.4157C86.9365 45.6297 86.6424 45.8971 86.5711 45.9684Z" fill="#40DDB6"/>
<path d="M93.7555 54.3121C93.5505 54.2765 93.4168 54.0893 93.4257 53.8843C93.3544 53.804 93.3187 53.6882 93.3366 53.5723C93.6575 51.1834 95.5918 49.0619 97.2765 48.3934C98.6938 47.8318 98.8453 47.9388 98.9701 48.019C99.184 48.1616 99.2108 48.2329 99.1216 49.57C99.0503 50.5416 98.8988 51.219 98.5601 51.9856C98.2748 52.6363 97.4904 53.3762 97.2497 53.5901C96.706 54.0715 95.7166 54.3211 94.8519 54.3656C94.4419 54.3924 94.0497 54.3745 93.7555 54.3121ZM97.5795 49.1421C96.1712 49.6948 94.4954 51.531 94.1656 53.5545C94.9945 53.6258 96.2425 53.4118 96.7149 52.984C97.1428 52.5918 97.6598 52.0391 97.8202 51.6558C98.1233 50.9695 98.257 50.3901 98.3194 49.5076C98.3283 49.3204 98.3461 49.0797 98.355 48.8658C98.0431 48.9728 97.6776 49.1065 97.5795 49.1421Z" fill="#40DDB6"/>
<path d="M96.7497 38.846C96.5803 38.748 96.5179 38.543 96.5982 38.3736C96.5625 38.2756 96.5625 38.1686 96.616 38.0705C97.6143 36.1006 99.9052 34.8348 101.572 34.7457C101.59 34.7457 101.608 34.7457 101.626 34.7457C103.025 34.6833 103.141 34.8259 103.221 34.9329C103.373 35.129 103.355 35.2092 102.882 36.3324C102.526 37.1613 102.187 37.7051 101.661 38.2667C101.198 38.7658 100.226 39.1848 100.039 39.265C99.825 39.3541 99.5754 39.4076 99.299 39.4165C98.3987 39.4789 97.3202 39.1848 96.7497 38.846ZM101.643 35.4945C100.217 35.5747 98.2294 36.6443 97.3291 38.3112C98.0333 38.6321 99.1921 38.8193 99.7269 38.5875C100.217 38.3825 100.832 38.0438 101.091 37.7675C101.563 37.2594 101.857 36.7959 102.178 36.0382C102.267 35.8243 102.348 35.6371 102.401 35.4945C102.098 35.4855 101.741 35.4855 101.643 35.4945Z" fill="#40DDB6"/>
<path d="M96.3044 38.6145C95.4487 38.463 93.9779 37.7231 93.5233 36.8496C93.4253 36.6624 92.9528 35.7175 92.9172 35.0401C92.8815 34.2646 92.9618 33.6317 93.2203 32.767C93.5768 31.5815 93.6214 31.528 93.8531 31.4745C93.9869 31.4389 94.1562 31.4032 95.1991 32.3481C96.4381 33.4712 97.4098 35.9403 96.9017 38.1153C96.8749 38.2223 96.8125 38.3114 96.7234 38.356C96.6788 38.5075 96.5451 38.6145 96.3847 38.6234C96.3668 38.6145 96.3312 38.6145 96.3044 38.6145ZM93.9423 32.9721C93.7105 33.7565 93.6303 34.3002 93.666 34.9866C93.6838 35.361 93.9423 36.0117 94.183 36.493C94.4504 37.01 95.4576 37.6161 96.1975 37.8212C96.5719 35.9671 95.725 33.8367 94.691 32.8918C94.6197 32.8294 94.3434 32.5888 94.1116 32.4105C94.0582 32.5977 93.9958 32.8116 93.9423 32.9721Z" fill="#40DDB6"/>
<path d="M85.064 26.9644C84.8055 26.8396 83.923 26.376 83.5041 25.868C83.0138 25.2707 82.7018 24.7092 82.3987 23.8623C81.9798 22.6857 81.9887 22.6233 82.1402 22.4451C82.2294 22.3381 82.3453 22.2044 83.7447 22.3559C85.4116 22.5253 87.6579 23.9337 88.5404 25.9838C88.5849 26.0819 88.576 26.1889 88.5404 26.2869C88.6028 26.4652 88.5314 26.6613 88.3532 26.7504C87.9164 26.9733 87.2122 27.1515 86.5169 27.1961C85.9821 27.205 85.4562 27.1515 85.064 26.9644ZM83.6645 23.0868C83.5665 23.0779 83.201 23.0512 82.9068 23.0423C82.9603 23.2116 83.0316 23.4167 83.094 23.6038C83.3704 24.3704 83.6378 24.8518 84.0745 25.3866C84.3152 25.6808 84.9035 26.0551 85.3849 26.2869C85.9108 26.5454 87.0785 26.4295 87.7916 26.1532C87.0072 24.4417 85.0551 23.2295 83.6645 23.0868Z" fill="#40DDB6"/>
<path d="M88.042 25.9662C87.9618 25.9038 87.8994 25.8147 87.8905 25.7077C87.6409 23.4882 88.8888 21.1528 90.2437 20.1811C91.3757 19.3611 91.5629 19.4235 91.6788 19.468C91.9106 19.5483 91.9373 19.6285 92.1602 20.8229C92.3206 21.7054 92.3295 22.3472 92.2047 23.1138C92.0978 23.7645 91.5629 24.6024 91.3936 24.8431C90.8409 25.6631 89.2988 26.2336 88.4342 26.2782C88.2292 26.2871 88.0687 26.1534 88.042 25.9662ZM90.6805 20.7784C89.5484 21.5984 88.452 23.613 88.6214 25.5027C89.3791 25.3868 90.4487 24.9055 90.7785 24.4152C91.0816 23.9695 91.4114 23.3545 91.4738 22.9801C91.5897 22.2937 91.5808 21.75 91.4292 20.9388C91.3847 20.716 91.349 20.5199 91.3223 20.3594C91.0638 20.5288 90.7607 20.7249 90.6805 20.7784Z" fill="#40DDB6"/>
<path d="M91.6162 70.2587C91.4379 70.1161 91.3933 69.8576 91.5181 69.6615C91.4914 69.5456 91.5181 69.4119 91.5894 69.3049C93.1672 67.1032 96.1979 66.0157 98.2035 66.2475C99.8971 66.4347 100.004 66.6308 100.084 66.7734C100.218 67.023 100.209 67.1121 99.4158 68.3868C98.8364 69.3138 98.3283 69.9021 97.5884 70.4815C96.9466 70.9896 95.6987 71.3194 95.458 71.3818C95.3332 71.4175 95.1906 71.4353 95.048 71.4442C93.8981 71.4977 92.3471 70.847 91.6162 70.2587ZM98.1143 67.1389C96.4207 66.9517 93.8001 67.8787 92.4184 69.7149C93.1939 70.223 94.5577 70.6687 95.2441 70.4904C95.877 70.33 96.6703 70.0448 97.0358 69.7595C97.6954 69.2425 98.1322 68.7344 98.6581 67.8965C98.7561 67.745 98.8988 67.4954 99.0325 67.2815C98.667 67.2191 98.2302 67.1567 98.1143 67.1389Z" fill="#40DDB6"/>
<path d="M49.4894 98.9699C63.0206 98.9699 75.6604 93.6127 85.0733 83.8789L83.5669 82.417C74.555 91.7409 62.459 96.8663 49.4983 96.8663C23.372 96.8663 2.11257 75.6069 2.11257 49.4805C2.11257 23.3542 23.3542 2.09474 49.4894 2.09474C56.3531 2.09474 62.976 3.52987 69.1622 6.35554L70.0357 4.4569C63.5732 1.49752 56.6561 0 49.4894 0C22.1954 0 0 22.1954 0 49.4894C0 76.7835 22.1954 98.9699 49.4894 98.9699Z" fill="#6B77E5"/>
<path d="M18.9507 34.8615C18.2733 34.4871 17.7385 33.9612 17.3462 33.2837C16.954 32.6063 16.749 31.8486 16.749 31.0107C16.749 30.1728 16.9451 29.4151 17.3462 28.7466C17.7385 28.0781 18.2733 27.5522 18.9507 27.1778C19.6282 26.8034 20.368 26.6162 21.1703 26.6162C21.9814 26.6162 22.7213 26.8034 23.3898 27.1778C24.0673 27.5522 24.5932 28.0781 24.9854 28.7466C25.3776 29.4151 25.5648 30.1728 25.5648 31.0107C25.5648 31.8486 25.3687 32.6063 24.9765 33.2837C24.5843 33.9612 24.0494 34.4782 23.3809 34.8615C22.7124 35.2359 21.9725 35.423 21.1614 35.423C20.3591 35.423 19.6193 35.2359 18.9507 34.8615ZM22.8193 32.8291C23.2294 32.3745 23.4344 31.7684 23.4344 31.0196C23.4344 30.262 23.2294 29.6558 22.8193 29.2012C22.4093 28.7466 21.8566 28.5238 21.1703 28.5238C20.475 28.5238 19.9223 28.7466 19.5123 29.2012C19.1023 29.6469 18.8972 30.262 18.8972 31.0285C18.8972 31.7862 19.1023 32.3924 19.5123 32.847C19.9223 33.3016 20.475 33.5244 21.1703 33.5244C21.8566 33.5155 22.4093 33.2837 22.8193 32.8291Z" fill="#37393F"/>
<path d="M37.242 35.343L35.4504 32.0984H34.9512V35.343H32.8564V26.7412H36.3685C37.0459 26.7412 37.6253 26.8571 38.0978 27.0978C38.5791 27.3384 38.9357 27.6593 39.1674 28.0694C39.3992 28.4794 39.524 28.9429 39.524 29.451C39.524 30.0215 39.3635 30.5296 39.0426 30.9842C38.7217 31.4388 38.2404 31.7508 37.6164 31.938L39.6042 35.343H37.242ZM34.9512 30.6098H36.2526C36.6359 30.6098 36.9211 30.5117 37.1172 30.3246C37.3044 30.1374 37.4025 29.87 37.4025 29.5312C37.4025 29.2014 37.3044 28.9518 37.1172 28.7557C36.9211 28.5685 36.6359 28.4705 36.2526 28.4705H34.9512V30.6098Z" fill="#37393F"/>
<path d="M52.6711 29.4593C52.5196 29.1741 52.2968 28.9513 52.0026 28.7997C51.7084 28.6482 51.3697 28.5769 50.9775 28.5769C50.3001 28.5769 49.7563 28.7997 49.3463 29.2454C48.9363 29.6911 48.7312 30.2883 48.7312 31.0282C48.7312 31.8215 48.9452 32.4365 49.373 32.8822C49.8009 33.3279 50.3892 33.5508 51.1469 33.5508C51.6639 33.5508 52.1007 33.4171 52.4483 33.1586C52.8048 32.9001 53.0633 32.5257 53.2238 32.0354H50.5675V30.4933H55.1224V32.4455C54.9709 32.9714 54.7035 33.4527 54.3291 33.9073C53.9547 34.353 53.4823 34.7185 52.9118 34.9948C52.3413 35.2711 51.6906 35.4138 50.9775 35.4138C50.1307 35.4138 49.373 35.2266 48.7045 34.8522C48.036 34.4778 47.519 33.9608 47.1446 33.3012C46.7702 32.6416 46.583 31.8839 46.583 31.0371C46.583 30.1903 46.7702 29.4326 47.1446 28.7641C47.519 28.0955 48.036 27.5785 48.6956 27.2041C49.3552 26.8298 50.1129 26.6426 50.9597 26.6426C51.9848 26.6426 52.8583 26.8922 53.5625 27.3913C54.2667 27.8905 54.7391 28.5769 54.962 29.4593H52.6711Z" fill="#37393F"/>
<path d="M22.4539 49.8367H19.245L18.728 51.3521H16.5352L19.6461 42.7502H22.0706L25.1815 51.3521H22.962L22.4539 49.8367ZM21.9191 48.2233L20.8494 45.0767L19.7976 48.2233H21.9191Z" fill="#37393F"/>
<path d="M39.9514 51.3606H37.8567L34.3535 46.0569V51.3606H32.2588V42.7588H34.3535L37.8567 48.0892V42.7588H39.9514V51.3606Z" fill="#37393F"/>
<path d="M49.6856 42.7588V51.3606H47.5908V42.7588H49.6856Z" fill="#37393F"/>
<path d="M17.3017 60.7914C17.6671 60.1229 18.1841 59.6059 18.8349 59.2315C19.4856 58.8571 20.2343 58.6699 21.0722 58.6699C22.0973 58.6699 22.9709 58.9373 23.6929 59.4811C24.4238 60.0159 24.9052 60.7557 25.1547 61.6828H22.855C22.6856 61.3262 22.4449 61.0499 22.124 60.8627C21.8121 60.6755 21.4555 60.5775 21.0544 60.5775C20.4126 60.5775 19.8867 60.8003 19.4856 61.2549C19.0844 61.7006 18.8883 62.3068 18.8883 63.0555C18.8883 63.8043 19.0844 64.4104 19.4856 64.8561C19.8867 65.3018 20.4126 65.5335 21.0544 65.5335C21.4555 65.5335 21.8121 65.4444 22.124 65.2483C22.436 65.0611 22.6767 64.7848 22.855 64.4282H25.1547C24.9141 65.3553 24.4238 66.0951 23.6929 66.6299C22.9619 67.1648 22.0884 67.4322 21.0722 67.4322C20.2432 67.4322 19.4945 67.245 18.8349 66.8706C18.1752 66.4962 17.6671 65.9792 17.3017 65.3196C16.9362 64.66 16.749 63.9023 16.749 63.0555C16.749 62.2176 16.9362 61.4599 17.3017 60.7914Z" fill="#37393F"/>
<path d="M37.9197 65.855H34.7108L34.1938 67.3704H32.001L35.1119 58.7686H37.5364L40.6474 67.3704H38.4278L37.9197 65.855ZM37.376 64.2416L36.3063 61.0951L35.2545 64.2416H37.376Z" fill="#37393F"/>
<path d="M49.8106 65.7567H52.556V67.3701H47.7158V58.7683H49.8106V65.7567Z" fill="#37393F"/>
<path d="M18.897 75.3045C19.0218 75.4561 19.0842 75.6343 19.0842 75.8304C19.0842 75.9998 19.0396 76.1424 18.9505 76.2761C18.8614 76.4098 18.7366 76.5168 18.5761 76.5881C18.4157 76.6683 18.2196 76.704 18.0056 76.704H16.6953V73.4326H17.9432C18.1661 73.4326 18.3622 73.4683 18.5226 73.5485C18.6831 73.6287 18.8079 73.7268 18.8881 73.8516C18.9683 73.9764 19.0129 74.119 19.0129 74.2794C19.0129 74.4666 18.9594 74.6271 18.8614 74.7519C18.7633 74.8767 18.6296 74.9747 18.4602 75.0282C18.6296 75.0549 18.7722 75.1441 18.897 75.3045ZM17.2301 74.8053H17.8987C18.077 74.8053 18.2107 74.7697 18.3087 74.6895C18.4068 74.6092 18.4602 74.4934 18.4602 74.3418C18.4602 74.1903 18.4068 74.0833 18.3087 73.9942C18.2107 73.914 18.068 73.8694 17.8987 73.8694H17.2301V74.8053ZM18.3889 76.1335C18.4959 76.0444 18.5405 75.9196 18.5405 75.768C18.5405 75.6076 18.487 75.4828 18.3711 75.3847C18.2641 75.2867 18.1126 75.2421 17.9343 75.2421H17.2301V76.2672H17.9522C18.1393 76.2672 18.282 76.2226 18.3889 76.1335Z" fill="#37393F"/>
<path d="M22.6766 76.5254C22.4181 76.3827 22.222 76.1866 22.0705 75.9281C21.919 75.6696 21.8477 75.3844 21.8477 75.0635C21.8477 74.7426 21.919 74.4573 22.0705 74.1988C22.222 73.9403 22.4181 73.7442 22.6766 73.6016C22.9351 73.459 23.2115 73.3877 23.5145 73.3877C23.8265 73.3877 24.1028 73.459 24.3613 73.6016C24.6198 73.7442 24.816 73.9403 24.9675 74.1988C25.119 74.4573 25.1903 74.7426 25.1903 75.0635C25.1903 75.3844 25.119 75.6696 24.9675 75.9281C24.816 76.1866 24.6198 76.3827 24.3613 76.5254C24.1028 76.668 23.8265 76.7393 23.5145 76.7393C23.2115 76.7393 22.9262 76.668 22.6766 76.5254ZM24.0939 76.1242C24.2633 76.0262 24.397 75.8836 24.4951 75.6964C24.5931 75.5092 24.6377 75.3042 24.6377 75.0546C24.6377 74.8139 24.5931 74.6 24.4951 74.4217C24.397 74.2434 24.2633 74.1008 24.0939 74.0027C23.9246 73.9047 23.7285 73.8601 23.5145 73.8601C23.3006 73.8601 23.1045 73.9047 22.9351 74.0027C22.7658 74.1008 22.6321 74.2434 22.534 74.4217C22.436 74.6 22.3914 74.8139 22.3914 75.0546C22.3914 75.2952 22.436 75.5092 22.534 75.6964C22.6321 75.8836 22.7658 76.0173 22.9351 76.1242C23.1045 76.2223 23.3006 76.2758 23.5145 76.2758C23.7285 76.2758 23.9246 76.2223 24.0939 76.1242Z" fill="#37393F"/>
<path d="M30.1813 73.4326V73.8694H29.3078V76.704H28.773V73.8694H27.8994V73.4326H30.1813Z" fill="#37393F"/>
<path d="M35.0577 76.0356H33.6849L33.4532 76.7041H32.8916L34.0682 73.4238H34.6922L35.8688 76.7041H35.3072L35.0577 76.0356ZM34.9061 75.5988L34.3713 74.0745L33.8365 75.5988H34.9061Z" fill="#37393F"/>
<path d="M41.4135 76.7041H40.8787L39.2653 74.2617V76.7041H38.7305V73.4238H39.2653L40.8787 75.8662V73.4238H41.4135V76.7041Z" fill="#37393F"/>
<path d="M45.0143 73.4326V76.704H44.4795V73.4326H45.0143Z" fill="#37393F"/>
<path d="M48.1165 74.1988C48.2681 73.9403 48.4642 73.7442 48.7227 73.6016C48.9812 73.459 49.2575 73.3877 49.5606 73.3877C49.9082 73.3877 50.2202 73.4768 50.4876 73.6462C50.755 73.8156 50.96 74.0562 51.0759 74.3771H50.4341C50.3539 74.2078 50.2291 74.0741 50.0776 73.9938C49.926 73.9047 49.7567 73.869 49.5516 73.869C49.3377 73.869 49.1416 73.9136 48.9722 74.0117C48.8029 74.1097 48.6692 74.2523 48.5711 74.4306C48.4731 74.6089 48.4285 74.8228 48.4285 75.0635C48.4285 75.3042 48.4731 75.5181 48.5711 75.6964C48.6692 75.8746 48.8029 76.0173 48.9722 76.1153C49.1416 76.2134 49.3377 76.2668 49.5516 76.2668C49.7477 76.2668 49.926 76.2223 50.0776 76.1421C50.2291 76.0529 50.345 75.9281 50.4341 75.7588H51.0759C50.9511 76.0707 50.755 76.3114 50.4876 76.4808C50.2113 76.6501 49.9082 76.7393 49.5606 76.7393C49.2486 76.7393 48.9722 76.668 48.7137 76.5254C48.4552 76.3827 48.2591 76.1866 48.1076 75.9281C47.9561 75.6696 47.8848 75.3844 47.8848 75.0635C47.8848 74.7426 47.965 74.4484 48.1165 74.1988Z" fill="#37393F"/>
<path d="M56.0498 76.0356H54.6771L54.4454 76.7041H53.8838L55.0604 73.4238H55.6844L56.861 76.7041H56.2994L56.0498 76.0356ZM55.8983 75.5988L55.3635 74.0745L54.8286 75.5988H55.8983Z" fill="#37393F"/>
<path d="M60.2487 76.2672H61.354V76.704H59.7139V73.4326H60.2487V76.2672Z" fill="#37393F"/>
<path d="M55.0788 44.6499V45.6126H56.2108V46.0494H55.0788V47.0566H56.3534V47.4934H54.5439V44.2131H56.3534V44.6499H55.0788Z" fill="#37393F"/>
<path d="M58.9112 47.4127C58.7329 47.3325 58.5992 47.2255 58.5011 47.0829C58.4031 46.9403 58.3496 46.7798 58.3496 46.5926H58.9201C58.929 46.7353 58.9914 46.8511 59.0895 46.9403C59.1875 47.0294 59.3301 47.074 59.5084 47.074C59.6956 47.074 59.8382 47.0294 59.9452 46.9403C60.0521 46.8511 60.0967 46.7353 60.0967 46.5926C60.0967 46.4857 60.0611 46.3965 59.9987 46.3252C59.9363 46.2539 59.856 46.2004 59.758 46.1648C59.6599 46.1291 59.5262 46.0846 59.3569 46.04C59.1429 45.9865 58.9736 45.9241 58.8399 45.8706C58.7062 45.8171 58.5903 45.7191 58.5011 45.6032C58.4031 45.4784 58.3585 45.318 58.3585 45.113C58.3585 44.9258 58.4031 44.7564 58.5011 44.6138C58.5992 44.4712 58.724 44.3642 58.8934 44.2929C59.0627 44.2216 59.2588 44.177 59.4817 44.177C59.8026 44.177 60.0611 44.2572 60.2661 44.4177C60.4711 44.5781 60.5781 44.7921 60.6048 45.0684H60.0076C59.9987 44.9525 59.9452 44.8455 59.8382 44.7653C59.7312 44.6851 59.5975 44.6405 59.4282 44.6405C59.2766 44.6405 59.1519 44.6762 59.0538 44.7564C58.9557 44.8366 58.9112 44.9436 58.9112 45.0951C58.9112 45.1932 58.9379 45.2823 59.0003 45.3447C59.0627 45.4071 59.1429 45.4606 59.2321 45.4962C59.3301 45.5319 59.4549 45.5765 59.6154 45.621C59.8293 45.6834 60.0076 45.7369 60.1413 45.7993C60.275 45.8617 60.3909 45.9508 60.4889 46.0756C60.587 46.2004 60.6315 46.3609 60.6315 46.5748C60.6315 46.7442 60.587 46.8957 60.4978 47.0472C60.4087 47.1988 60.275 47.3147 60.1056 47.4038C59.9363 47.4929 59.7312 47.5375 59.4995 47.5375C59.2856 47.5286 59.0895 47.484 58.9112 47.4127Z" fill="#37393F"/>
<path d="M64.8034 44.2219V44.6587H63.9299V47.4933H63.395V44.6587H62.5215V44.2219H64.8034Z" fill="#37393F"/>
<path d="M54.7751 52.4131C55.0782 52.1546 55.3099 51.9406 55.4882 51.7713C55.6665 51.6019 55.8091 51.4236 55.925 51.2454C56.0409 51.0671 56.1033 50.8799 56.1033 50.7016C56.1033 50.5144 56.0587 50.3629 55.9696 50.2559C55.8804 50.149 55.7378 50.0955 55.5506 50.0955C55.3634 50.0955 55.2208 50.1579 55.1228 50.2738C55.0158 50.3896 54.9623 50.5501 54.9623 50.7462H54.4453C54.4542 50.3896 54.5612 50.1133 54.7662 49.9261C54.9712 49.7389 55.2297 49.6409 55.5506 49.6409C55.8893 49.6409 56.1568 49.7389 56.3529 49.9261C56.549 50.1133 56.647 50.3629 56.647 50.6838C56.647 50.9066 56.5935 51.1295 56.4777 51.3345C56.3618 51.5395 56.2281 51.7267 56.0676 51.8961C55.9072 52.0654 55.7111 52.2526 55.4615 52.4665L55.2476 52.6537H56.7362V53.0994H54.4453V52.7072L54.7751 52.4131Z" fill="#37393F"/>
<path d="M58.8847 50.1132C59.0719 49.8101 59.3839 49.6497 59.8385 49.6497C60.2931 49.6497 60.6051 49.8012 60.7834 50.1132C60.9706 50.4162 61.0597 50.8441 61.0597 51.3879C61.0597 51.9405 60.9706 52.3684 60.7834 52.6803C60.5962 52.9923 60.2842 53.1439 59.8385 53.1439C59.3928 53.1439 59.0719 52.9923 58.8847 52.6803C58.6975 52.3684 58.6084 51.9405 58.6084 51.3879C58.6084 50.8441 58.6975 50.4162 58.8847 50.1132ZM60.4803 50.7371C60.4446 50.5589 60.3822 50.4162 60.2842 50.3093C60.1861 50.2023 60.0346 50.1399 59.8385 50.1399C59.6424 50.1399 59.4909 50.1934 59.3928 50.3093C59.2948 50.4252 59.2235 50.5678 59.1967 50.7371C59.17 50.9065 59.1432 51.1293 59.1432 51.3789C59.1432 51.6463 59.1611 51.8603 59.1878 52.0475C59.2145 52.2347 59.2858 52.3684 59.3839 52.4842C59.482 52.5912 59.6335 52.6536 59.8296 52.6536C60.0257 52.6536 60.1772 52.6001 60.2753 52.4842C60.3733 52.3773 60.4446 52.2257 60.4714 52.0475C60.4981 51.8692 60.516 51.6463 60.516 51.3789C60.5249 51.1293 60.507 50.9154 60.4803 50.7371Z" fill="#37393F"/>
<path d="M63.3327 52.4131C63.6358 52.1546 63.8676 51.9406 64.0458 51.7713C64.2241 51.6019 64.3667 51.4236 64.4826 51.2454C64.5985 51.0671 64.6609 50.8799 64.6609 50.7016C64.6609 50.5144 64.6163 50.3629 64.5272 50.2559C64.4381 50.149 64.2954 50.0955 64.1082 50.0955C63.921 50.0955 63.7784 50.1579 63.6804 50.2738C63.5734 50.3896 63.5199 50.5501 63.5199 50.7462H63.0029C63.0118 50.3896 63.1188 50.1133 63.3238 49.9261C63.5288 49.7389 63.7873 49.6409 64.1082 49.6409C64.447 49.6409 64.7144 49.7389 64.9105 49.9261C65.1066 50.1133 65.2046 50.3629 65.2046 50.6838C65.2046 50.9066 65.1512 51.1295 65.0353 51.3345C64.9194 51.5395 64.7857 51.7267 64.6252 51.8961C64.4648 52.0654 64.2687 52.2526 64.0191 52.4665L63.8052 52.6537H65.2938V53.0994H63.0029V52.7072L63.3327 52.4131Z" fill="#37393F"/>
<path d="M67.4511 50.1132C67.6383 49.8101 67.9503 49.6497 68.4049 49.6497C68.8595 49.6497 69.1715 49.8012 69.3498 50.1132C69.537 50.4162 69.6261 50.8441 69.6261 51.3879C69.6261 51.9405 69.537 52.3684 69.3498 52.6803C69.1626 52.9923 68.8506 53.1439 68.4049 53.1439C67.9592 53.1439 67.6383 52.9923 67.4511 52.6803C67.2639 52.3684 67.1748 51.9405 67.1748 51.3879C67.1748 50.8441 67.2639 50.4162 67.4511 50.1132ZM69.0467 50.7371C69.011 50.5589 68.9486 50.4162 68.8506 50.3093C68.7525 50.2023 68.601 50.1399 68.4049 50.1399C68.2088 50.1399 68.0573 50.1934 67.9592 50.3093C67.8612 50.4252 67.7899 50.5678 67.7631 50.7371C67.7364 50.9065 67.7096 51.1293 67.7096 51.3789C67.7096 51.6463 67.7275 51.8603 67.7542 52.0475C67.7809 52.2347 67.8523 52.3684 67.9503 52.4842C68.0484 52.5912 68.1999 52.6536 68.396 52.6536C68.5921 52.6536 68.7436 52.6001 68.8417 52.4842C68.9397 52.3773 69.011 52.2257 69.0378 52.0475C69.0645 51.8692 69.0824 51.6463 69.0824 51.3789C69.0913 51.1293 69.0734 50.9154 69.0467 50.7371Z" fill="#37393F"/>
</svg>
