<svg width="28" height="28" viewBox="0 0 28 28" fill="none" xmlns="http://www.w3.org/2000/svg">
<path d="M26.1894 21.3734C25.1969 20.3734 22.7931 18.9141 21.6268 18.326C20.108 17.5611 19.983 17.4986 18.7893 18.3854C17.993 18.9772 17.4636 19.506 16.5317 19.3072C15.5998 19.1085 13.5748 17.9879 11.8016 16.2205C10.0284 14.4531 8.84278 12.3694 8.6434 11.4407C8.44402 10.512 8.98153 9.98888 9.56779 9.19079C10.3941 8.06584 10.3316 7.87835 9.62529 6.35966C9.07466 5.17846 7.57274 2.79732 6.56897 1.80986C5.49519 0.74928 5.49519 0.936772 4.8033 1.22426C4.24002 1.46124 3.69963 1.74931 3.18889 2.08485C2.18886 2.74919 1.63385 3.30104 1.24572 4.13038C0.857581 4.95972 0.683202 6.90402 2.68763 10.5451C4.69205 14.1862 6.09833 16.048 9.00903 18.9504C11.9197 21.8527 14.1579 23.4133 17.4299 25.2482C21.4775 27.515 23.03 27.0731 23.8619 26.6857C24.6938 26.2982 25.2482 25.7482 25.9138 24.7482C26.2502 24.2384 26.539 23.6986 26.7763 23.1358C27.0645 22.4465 27.252 22.4465 26.1894 21.3734Z" stroke="#40DDB6" stroke-width="2" stroke-miterlimit="10"/>
</svg>
