<svg width="18" height="18" viewBox="0 0 18 18" fill="none" xmlns="http://www.w3.org/2000/svg">
<path d="M8.68152 0C3.88731 0 0 3.88557 0 8.67765C0 12.2301 2.13937 15.2827 5.19729 16.627C5.17403 16.0227 5.19341 15.2944 5.34844 14.6358C5.51509 13.9307 6.46463 9.90569 6.46463 9.90569C6.46463 9.90569 6.18558 9.35172 6.18558 8.53431C6.18558 7.24816 6.92972 6.28742 7.85988 6.28742C8.65052 6.28742 9.03033 6.88013 9.03033 7.58907C9.03033 8.38323 8.52262 9.56866 8.26295 10.6689C8.04591 11.5909 8.72415 12.3385 9.63494 12.3385C11.2782 12.3385 12.3867 10.2272 12.3867 7.72466C12.3867 5.82255 11.1038 4.40081 8.77454 4.40081C6.14295 4.40081 4.49966 6.3649 4.49966 8.55756C4.49966 9.31297 4.72445 9.84758 5.07326 10.2582C5.23217 10.448 5.25542 10.5255 5.19729 10.7425C5.15465 10.9013 5.06164 11.2848 5.019 11.4398C4.96087 11.6606 4.78259 11.7381 4.58493 11.6567C3.37184 11.1608 2.80599 9.83596 2.80599 8.34061C2.80599 5.87678 4.88723 2.92096 9.01095 2.92096C12.3247 2.92096 14.5067 5.31893 14.5067 7.89124C14.5067 11.2964 12.6115 13.8377 9.82097 13.8377C8.88306 13.8377 8.00328 13.3303 7.70097 12.7569C7.70097 12.7569 7.19714 14.7559 7.08862 15.1433C6.90646 15.8135 6.54602 16.4798 6.21659 17.0028C7.01571 17.2384 7.84448 17.3584 8.67765 17.3592C13.4719 17.3592 17.3592 13.4736 17.3592 8.68152C17.3592 3.88945 13.4757 0 8.68152 0Z" fill="white"/>
</svg>
