<svg width="19" height="15" viewBox="0 0 19 15" fill="none" xmlns="http://www.w3.org/2000/svg">
<path d="M18.3085 1.7355C17.6217 2.03391 16.8951 2.23051 16.1515 2.31908C16.9329 1.86151 17.5206 1.13459 17.8042 0.274634C17.0655 0.706635 16.2585 1.00975 15.418 1.17099C15.0641 0.800061 14.6385 0.504979 14.1669 0.303678C13.6954 0.102376 13.1879 -0.000941105 12.6752 6.45924e-06C10.5995 6.45924e-06 8.91967 1.6554 8.91967 3.69603C8.9182 3.97988 8.95072 4.26288 9.01655 4.53899C7.52811 4.46921 6.07061 4.08951 4.73732 3.42417C3.40402 2.75884 2.22429 1.82253 1.27358 0.675132C0.940055 1.2374 0.763667 1.87893 0.762854 2.53268C0.762854 3.81428 1.4315 4.94711 2.44113 5.6108C1.84295 5.5966 1.25703 5.43828 0.733103 5.14927V5.19504C0.733103 6.98775 2.02995 8.47913 3.74638 8.8186C3.42361 8.90464 3.091 8.94824 2.75695 8.94828C2.51993 8.9487 2.28344 8.9257 2.05093 8.87963C2.5281 10.3481 3.91687 11.4161 5.56197 11.4466C4.22521 12.4768 2.58402 13.0336 0.896353 13.0296C0.596788 13.0291 0.2975 13.0113 0 12.9762C1.71687 14.0725 3.7126 14.6523 5.74963 14.6468C12.6672 14.6468 16.4464 9.01313 16.4464 4.12705C16.4464 3.96685 16.4422 3.80665 16.4345 3.65026C17.1681 3.12849 17.8026 2.48009 18.3085 1.7355Z" fill="white"/>
</svg>
